<?xml version="1.0" encoding="utf-8"?>
<!-- Generator: Adobe Illustrator 24.3.0, SVG Export Plug-In . SVG Version: 6.00 Build 0)  -->
<svg version="1.1" id="Camada_1" xmlns:xodm="http://www.corel.com/coreldraw/odm/2003"
	 xmlns="http://www.w3.org/2000/svg" xmlns:xlink="http://www.w3.org/1999/xlink" x="0px" y="0px" viewBox="0 0 922 505"
	 style="enable-background:new 0 0 922 505;" xml:space="preserve">
<style type="text/css">
	.st0{fill-rule:evenodd;clip-rule:evenodd;fill:#557C05;}
	.st1{clip-path:url(#SVGID_2_);}
	.st2{fill-rule:evenodd;clip-rule:evenodd;fill:#F9E9AB;}
	.st3{fill:none;}
	.st4{fill-rule:evenodd;clip-rule:evenodd;fill:#F5D76F;}
	.st5{clip-path:url(#SVGID_4_);}
	.st6{fill:#557C05;}
	.st7{fill:#F9E9AB;}
</style>
<g id="Camada_x0020_1">
	<g id="_1658515279584">
		<g>
			<path class="st0" d="M659.4,151.1c8.6,0.5,17.3,1,25.9,1.6c5.8-15.4,11.5-30.9,14.3-39.1c2.7-8.2,2.5-9.3,2.1-1.4
				c-0.4,7.8-0.9,24.6-1.4,41.3c9.4,0.8,18.8,1.6,23.8,1.7c5,0.1,5.5-0.4,6-0.9c2.6-5,5.2-9.9,7.6-17.1c2.4-7.2,4.4-16.6,3.9-31
				c-0.5-14.4-3.7-33.7-7.2-50.3c-3.5-16.6-7.5-30.5-11.4-44.3c-9.2,7.3-18.3,14.6-26.4,24.2c-8.1,9.5-15.2,21.3-21.3,35
				c-6.1,13.7-11.4,29.4-13.9,43.1C658.9,127.5,659.2,139.3,659.4,151.1L659.4,151.1z"/>
			<path class="st0" d="M740.2,155c2.4-3.4,4.7-6.8,6.3-11c1.6-4.2,2.4-9.2,2.4-14.6c0-5.5-0.8-11.5-1.3-14.5c-0.5-3-0.8-3,2.4-4.4
				c3.1-1.4,9.7-4.3,16.1-6c6.4-1.7,12.7-2.2,22.2-1.6c9.5,0.7,22.4,2.5,33.5,8.6c11.1,6.1,20.5,16.6,29.9,27.1
				c-4.4-1.8-8.9-3.7-14-4.7c-5.1-1-10.9-1.3-16.8,0.3c-5.9,1.6-12.1,5.2-16.5,9.3c-4.4,4.2-7.2,9-9.9,13.9
				C776.3,156.6,758.3,155.8,740.2,155L740.2,155z"/>
		</g>
		<path class="st0" d="M179.5,246.9h692.7v223.5H179.5c-55.9,0-73.5-89.9-101.6-138.3l-12.9-22.2l-9-23L48.7,238
			C46.5,222.7,123.6,246.9,179.5,246.9z"/>
		<g>
			<defs>
				<path id="SVGID_1_" d="M179.5,246.9h692.7v223.5H179.5c-55.9,0-73.5-89.9-101.6-138.3l-12.9-22.2l-9-23L48.7,238
					C46.5,222.7,123.6,246.9,179.5,246.9z"/>
			</defs>
			<clipPath id="SVGID_2_">
				<use xlink:href="#SVGID_1_"  style="overflow:visible;"/>
			</clipPath>
			<g class="st1">
				<g>
					<polygon id="_x31_" class="st2" points="109.1,404.4 146.7,402.7 109.1,400.5 					"/>
					<polygon class="st2" points="107.2,408.9 144.8,407.1 107.2,404.9 					"/>
					<polygon class="st2" points="109.1,412.2 146.7,410.5 109.1,408.3 					"/>
					<polygon class="st2" points="107.2,416.1 144.8,414.4 107.2,412.2 					"/>
					<polygon class="st2" points="109.1,419 146.7,417.3 109.1,415.1 					"/>
					<polygon class="st2" points="107.2,423.5 144.8,421.7 107.2,419.5 					"/>
					<polygon class="st2" points="109.1,426.8 146.7,425.1 109.1,422.9 					"/>
					<polygon class="st2" points="107.2,430.7 144.8,429 107.2,426.8 					"/>
					<polygon class="st2" points="109.1,433.6 146.7,431.9 109.1,429.7 					"/>
					<polygon class="st2" points="107.2,438.1 144.8,436.3 107.2,434.1 					"/>
					<polygon class="st2" points="109.1,441.5 146.7,439.7 109.1,437.5 					"/>
					<polygon class="st2" points="107.2,445.3 144.8,443.6 107.2,441.4 					"/>
					<polygon class="st2" points="109.1,448.3 146.7,446.5 109.1,444.3 					"/>
					<polygon class="st2" points="107.2,452.7 144.8,451 107.2,448.8 					"/>
					<polygon class="st2" points="109.1,456.1 146.7,454.3 109.1,452.1 					"/>
					<polygon class="st2" points="107.2,460 144.8,458.2 107.2,456 					"/>
				</g>
			</g>
		</g>
		<path class="st3" d="M179.5,246.9h692.7v223.5H179.5c-55.9,0-73.5-89.9-101.6-138.3l-12.9-22.2l-9-23L48.7,238
			C46.5,222.7,123.6,246.9,179.5,246.9z"/>
		<path class="st4" d="M262.5,155h508.1c55.9,0,101.7,45.8,101.7,101.7v20.1c0,55.9-45.8,101.7-101.7,101.7H262.5
			c-55.9,0-101.7-45.8-101.7-101.7v-20.1C160.7,200.8,206.5,155,262.5,155z"/>
		<path class="st2" d="M262.5,149.9h508.1c55.9,0,101.7,45.8,101.7,101.7v20.1c0,55.9-45.8,101.7-101.7,101.7H262.5
			c-55.9,0-101.7-45.8-101.7-101.7v-20.1C160.7,195.6,206.5,149.9,262.5,149.9L262.5,149.9z"/>
		<g>
			<g>
				<defs>
					<polygon id="SVGID_3_" points="29.3,51.7 401.8,51.7 401.8,424.2 29.3,424.2 29.3,51.7 					"/>
				</defs>
				<clipPath id="SVGID_4_">
					<use xlink:href="#SVGID_3_"  style="overflow:visible;"/>
				</clipPath>
				<g class="st5">
				</g>
			</g>
		</g>
		<g>
			<g>
				<path class="st2" d="M215.5,404.3c-91.8,0-166.3-74.5-166.3-166.3c0-91.8,74.5-166.3,166.3-166.3c91.8,0,166.3,74.5,166.3,166.3
					C381.8,329.8,307.4,404.3,215.5,404.3z"/>
			</g>
			<path class="st0" d="M215.5,77.8c-88.5,0-160.2,71.7-160.2,160.2c0,88.5,71.7,160.2,160.2,160.2S375.7,326.4,375.7,238
				C375.7,149.5,304,77.8,215.5,77.8z"/>
			<path class="st2" d="M101.2,333.3c0-14.7,0-29.4,6-40.3c6-10.9,18-18,31.1-23.4c13.1-5.4,27.2-9.3,39.8-19.1
				c12.5-9.8,23.4-25.6,27.5-41.7c4.1-16.1,1.4-32.4-4.9-47.9c-6.3-15.5-16.1-30.2-26.7-37.9c-10.6-7.6-22.1-8.2-27.2-8.7
				c-5.2-0.5-4.1-1.1-3-1.6c10.9-3.3,21.8-6.5,36.2-8.2c14.4-1.6,32.4-1.6,49,2.2c16.6,3.8,31.9,11.4,46.9,22.4
				c15,11,29.8,25.3,39.5,44.9c9.7,19.6,14.2,44.5,14.4,66.1c0.2,21.6-4,39.8-11.6,56.2c-7.6,16.3-18.6,30.8-32.1,43
				c-13.5,12.2-29.5,22-44.6,27.5c-15.2,5.5-29.5,6.5-43.5,5.4c-14-1.1-27.6-4.4-40.4-8.7c-12.8-4.4-24.8-9.8-36.8-15.3
				c14.2-3.3,28.3-6.5,44.7-11.7c16.3-5.2,34.9-12.3,49.3-20.4c14.4-8.2,24.8-17.4,32.1-28.1c7.4-10.6,11.7-22.6,13.9-28.6
				c2.2-6,2.2-6,2.2-6c-4.9,7.6-9.8,15.3-16.6,23.2c-6.8,7.9-15.5,16.1-27.2,23.7c-11.7,7.6-26.4,14.7-39.8,19.3
				c-13.3,4.6-25.3,6.8-38.1,8.7C128.5,330.1,114.8,331.7,101.2,333.3L101.2,333.3z"/>
		</g>
		<path class="st2" d="M206.5,419.8c7.6,0,13.7,6.1,13.7,13.7c0,7.6-6.1,13.7-13.7,13.7c-7.6,0-13.7-6.1-13.7-13.7
			C192.8,425.9,198.9,419.8,206.5,419.8z"/>
		<g>
			<g>
				<path class="st0" d="M95.9,389.1c0-9.2-60.3-104.5-68.4-108.3c-1.1,8.5,47.2,81,58.6,97C88,380.5,92.8,388.1,95.9,389.1z"/>
				<path class="st0" d="M72,384.3c0-8.1-43.2-76.6-50.5-80c-0.3,6.6,39.6,69.7,48.1,78.2L72,384.3L72,384.3z"/>
				<path class="st0" d="M48.5,378.8c-1.8-7.8-25.9-45.8-32.1-50.9c-0.7,0.8-2.1-0.6,1,5.6c4.3,8.4,22.9,39.3,28.5,44.4
					C48.6,380.5,47.1,379.2,48.5,378.8L48.5,378.8z"/>
				<path class="st0" d="M15.2,364.2c2.6,4.2,5.6,8.6,9.1,10.8c1-4.5-9.7-22.1-14.6-23.6C9.5,355.2,12.7,360.2,15.2,364.2
					L15.2,364.2z"/>
			</g>
			<g>
				<path class="st0" d="M402.8,195.2c-8.3-3.9-68.4-99.3-68.4-108.3c8.1,2.6,52.9,77.4,62.4,94.6
					C398.4,184.4,403.2,192,402.8,195.2L402.8,195.2z"/>
				<path class="st0" d="M408.7,171.6c-7.3-3.5-50.6-71.9-50.5-80c6.1,2.6,46,65.7,49.9,77L408.7,171.6z"/>
				<path class="st0" d="M413.8,148c-6.2-5-30.3-43.1-32.1-50.9c1-0.3,0.3-2.2,4.6,3.3c5.8,7.5,25.7,37.5,27.9,44.8
					C415.3,148.9,414.8,146.9,413.8,148z"/>
				<path class="st0" d="M414.9,111.7c2.7,4.2,5.4,8.7,5.8,12.8c-4.5-1.1-15.8-18.3-15-23.3C409.3,102.7,412.4,107.6,414.9,111.7
					L414.9,111.7z"/>
			</g>
		</g>
		<path class="st0" d="M846.4,490.5c-34.3,0-62.1-27.8-62.1-62.1c0-34.3,27.8-62.1,62.1-62.1c34.3,0,62.1,27.8,62.1,62.1
			C908.5,462.7,880.7,490.5,846.4,490.5z"/>
		<path class="st2" d="M846.4,373.2c-30.5,0-55.1,24.7-55.1,55.1c0,30.5,24.7,55.1,55.1,55.1c30.5,0,55.1-24.7,55.1-55.1
			C901.6,397.9,876.9,373.2,846.4,373.2z"/>
		<path class="st6" d="M813.6,386.9h22.1v10h-9v9.6h8v9.5h-8v21.1h-13.1L813.6,386.9L813.6,386.9z M879.2,386.9v50.3h-11.4l0-33.9
			l-4.5,33.9h-8l-4.8-33.2l0,33.2h-11.4v-50.3h16.9c0.5,3,1,6.6,1.6,10.7l1.9,12.8l3-23.5H879.2L879.2,386.9z"/>
		<path class="st6" d="M435.3,298.7v-18.8h31.4c2,0,3.7,4.7,3.7,9.4c0,4.7-1.6,9.4-3.7,9.4H435.3z M462.3,225c2,0,3.6,4.7,3.6,9.4
			c0,4.7-1.6,9.5-3.7,9.5h-27V225H462.3z M480.9,259.4c4.3-6.4,7-16.7,7-30.2c0.1-24.4-8.6-37.7-19-37.6h-57v140.4h61.3
			c10.3,0,19.1-13.2,19-37.7C492.3,276.7,487.7,264.5,480.9,259.4L480.9,259.4L480.9,259.4z M500.9,191.6v140.4h23.4v-34.3h20.9
			l11.3,34.3h24.9l-13.1-39.4c3.9-4.2,7.1-10.7,9.5-19.2c2.4-8.6,3.6-18.2,3.6-28.8c0.2-29.1-10.3-53.4-22.6-53.1L500.9,191.6
			L500.9,191.6z M552.7,232.7c2.8,0,5.1,5.3,5.1,12c0,3.3-0.5,6.1-1.5,8.5c-1,2.3-2.2,3.5-3.6,3.5h-28.5v-24H552.7z M630,188
			c-22.5,0.1-41,15.4-40.9,68.5v10.2c-0.1,53.1,18.4,68.4,40.9,68.5c22.5-0.1,41-15.5,40.9-68.5v-10.2
			C670.8,203.5,652.5,188,630,188L630,188z M647.5,263.3c0.1,23-8,27.2-17.5,27.4c-9.6-0.3-17.7-4.5-17.6-27.4v-3.5
			c-0.1-22.9,8-27,17.6-27.3c9.5,0.3,17.6,4.5,17.5,27.3V263.3z M726.1,332.1v-95.9h27.8v-44.5H675v44.5h27.8v95.9H726.1
			L726.1,332.1z M798.9,188c-22.5,0.1-41,15.4-40.9,68.5v10.2c-0.1,53.1,18.4,68.4,40.9,68.5c22.5-0.1,41-15.5,40.9-68.5v-10.2
			C839.8,203.5,821.4,188,798.9,188L798.9,188z M816.4,263.3c0.1,23-8,27.2-17.5,27.4c-9.6-0.3-17.7-4.5-17.6-27.4v-3.5
			c-0.1-22.9,8-27,17.6-27.3c9.5,0.3,17.6,4.5,17.5,27.3V263.3z"/>
		<g>
			<path class="st7" d="M274.8,440.9c0,2.2-0.6,4.2-1.7,6c-1.1,1.8-2.8,3.2-5.1,4.2c-2.2,1-4.9,1.5-7.9,1.5c-3.7,0-6.7-0.7-9.1-2.1
				c-1.7-1-3-2.3-4.1-4c-1.1-1.7-1.6-3.3-1.6-4.8c0-0.9,0.3-1.7,0.9-2.3c0.6-0.6,1.4-1,2.4-1c0.8,0,1.5,0.3,2,0.8
				c0.6,0.5,1,1.3,1.4,2.3c0.5,1.2,1,2.2,1.5,3c0.6,0.8,1.3,1.5,2.3,2c1,0.5,2.3,0.8,3.9,0.8c2.2,0,4-0.5,5.4-1.6
				c1.4-1,2.1-2.3,2.1-3.9c0-1.2-0.4-2.2-1.1-3c-0.8-0.8-1.7-1.4-2.9-1.8c-1.2-0.4-2.8-0.8-4.8-1.3c-2.7-0.6-4.9-1.4-6.7-2.2
				c-1.8-0.8-3.2-2-4.3-3.4c-1.1-1.4-1.6-3.2-1.6-5.4c0-2,0.6-3.9,1.7-5.4c1.1-1.6,2.7-2.8,4.8-3.7c2.1-0.9,4.6-1.3,7.4-1.3
				c2.3,0,4.2,0.3,5.9,0.8c1.7,0.6,3,1.3,4.1,2.3c1.1,0.9,1.9,1.9,2.4,2.9c0.5,1,0.8,2,0.8,3c0,0.9-0.3,1.7-0.9,2.4
				s-1.4,1.1-2.4,1.1c-0.9,0-1.5-0.2-2-0.6c-0.4-0.4-0.9-1.1-1.5-2.1c-0.7-1.4-1.5-2.5-2.4-3.3c-0.9-0.8-2.5-1.2-4.6-1.2
				c-1.9,0-3.5,0.4-4.7,1.3c-1.2,0.9-1.8,1.9-1.8,3.1c0,0.7,0.2,1.4,0.6,1.9c0.4,0.5,1,1,1.7,1.4c0.7,0.4,1.4,0.7,2.1,0.9
				c0.7,0.2,1.9,0.5,3.6,1c2.1,0.5,4,1,5.7,1.6c1.7,0.6,3.1,1.3,4.3,2.1c1.2,0.8,2.1,1.9,2.8,3.2C274.5,437.4,274.8,439,274.8,440.9
				z M287.6,428.5v20c0,1.4-0.3,2.4-1,3.1c-0.7,0.7-1.5,1.1-2.5,1.1c-1,0-1.8-0.4-2.5-1.1c-0.6-0.7-0.9-1.8-0.9-3.1v-19.8
				c0-1.4,0.3-2.4,0.9-3.1c0.6-0.7,1.5-1,2.5-1c1,0,1.8,0.3,2.5,1C287.3,426.3,287.6,427.2,287.6,428.5L287.6,428.5z M284.2,421.3
				c-1,0-1.8-0.3-2.5-0.9c-0.7-0.6-1-1.4-1-2.5c0-1,0.3-1.8,1-2.4c0.7-0.6,1.5-0.9,2.4-0.9c0.9,0,1.7,0.3,2.4,0.9
				c0.7,0.6,1,1.4,1,2.5c0,1.1-0.3,1.9-1,2.5C285.9,421,285.2,421.3,284.2,421.3L284.2,421.3z M301,428.4v0.8c1.2-1.6,2.5-2.8,4-3.5
				c1.4-0.8,3.1-1.1,5-1.1c1.8,0,3.4,0.4,4.9,1.2c1.4,0.8,2.5,1.9,3.2,3.4c0.5,0.8,0.8,1.8,0.9,2.7c0.1,1,0.2,2.2,0.2,3.7v12.9
				c0,1.4-0.3,2.4-0.9,3.1c-0.6,0.7-1.5,1.1-2.5,1.1c-1,0-1.9-0.4-2.5-1.1c-0.6-0.7-1-1.8-1-3.1v-11.5c0-2.3-0.3-4-0.9-5.2
				c-0.6-1.2-1.9-1.8-3.8-1.8c-1.2,0-2.3,0.4-3.4,1.1c-1,0.7-1.8,1.7-2.2,3c-0.3,1-0.5,2.9-0.5,5.8v8.7c0,1.4-0.3,2.4-1,3.1
				c-0.6,0.7-1.5,1.1-2.5,1.1c-1,0-1.8-0.4-2.5-1.1c-0.6-0.7-1-1.8-1-3.1v-20c0-1.3,0.3-2.3,0.9-2.9c0.6-0.6,1.4-1,2.3-1
				c0.6,0,1.2,0.1,1.6,0.4c0.5,0.3,0.9,0.7,1.2,1.3C300.9,426.8,301,427.5,301,428.4L301,428.4z M326.4,425.2h0.8V421
				c0-1.1,0-2,0.1-2.6c0.1-0.6,0.2-1.2,0.5-1.6c0.3-0.5,0.7-0.9,1.2-1.2c0.5-0.3,1.1-0.4,1.7-0.4c0.9,0,1.7,0.3,2.4,1
				c0.5,0.4,0.8,1,0.9,1.6c0.1,0.6,0.2,1.5,0.2,2.7v4.7h2.5c1,0,1.7,0.2,2.2,0.7c0.5,0.5,0.8,1.1,0.8,1.8c0,0.9-0.4,1.6-1.1,2
				c-0.7,0.4-1.8,0.6-3.2,0.6h-1.3v12.7c0,1.1,0,1.9,0.1,2.5c0.1,0.6,0.3,1.1,0.6,1.4c0.3,0.4,0.9,0.5,1.6,0.5
				c0.4,0,0.9-0.1,1.6-0.2c0.7-0.1,1.2-0.2,1.6-0.2c0.6,0,1.1,0.2,1.5,0.7c0.4,0.4,0.7,1,0.7,1.7c0,1.1-0.6,2-1.8,2.5
				c-1.2,0.6-3,0.9-5.2,0.9c-2.2,0-3.8-0.4-4.9-1.1c-1.1-0.7-1.8-1.7-2.2-3c-0.3-1.3-0.5-3-0.5-5.1v-13.3h-0.9c-1,0-1.8-0.2-2.3-0.7
				c-0.5-0.5-0.8-1.1-0.8-1.8c0-0.7,0.3-1.3,0.8-1.8C324.6,425.4,325.4,425.2,326.4,425.2L326.4,425.2z M370.3,438.6
				c0,2.1-0.3,4-1,5.7c-0.6,1.7-1.6,3.2-2.8,4.5c-1.2,1.3-2.7,2.2-4.4,2.9c-1.7,0.7-3.6,1-5.7,1c-2.1,0-4-0.3-5.6-1
				c-1.7-0.7-3.1-1.6-4.3-2.9c-1.2-1.3-2.1-2.7-2.8-4.4c-0.6-1.7-0.9-3.6-0.9-5.7c0-2.1,0.3-4,1-5.7c0.6-1.7,1.6-3.2,2.8-4.5
				c1.2-1.2,2.7-2.2,4.4-2.8c1.7-0.7,3.6-1,5.6-1c2.1,0,4,0.3,5.7,1c1.7,0.7,3.2,1.6,4.4,2.9c1.2,1.2,2.1,2.7,2.8,4.5
				C369.9,434.6,370.3,436.5,370.3,438.6L370.3,438.6z M363.3,438.6c0-2.8-0.6-5-1.9-6.6c-1.2-1.6-2.9-2.3-5-2.3
				c-1.4,0-2.5,0.3-3.6,1c-1,0.7-1.8,1.7-2.4,3.1c-0.6,1.4-0.8,3-0.8,4.8c0,1.8,0.3,3.4,0.8,4.7c0.6,1.3,1.3,2.4,2.3,3.1
				c1,0.7,2.2,1.1,3.6,1.1c2.1,0,3.7-0.8,5-2.4C362.7,443.5,363.3,441.4,363.3,438.6z M381.9,428.4v0.8c1.2-1.6,2.5-2.8,4-3.5
				c1.4-0.8,3.1-1.1,5-1.1c1.8,0,3.4,0.4,4.9,1.2c1.4,0.8,2.5,1.9,3.2,3.4c0.5,0.8,0.8,1.8,0.9,2.7c0.1,1,0.2,2.2,0.2,3.7v12.9
				c0,1.4-0.3,2.4-0.9,3.1c-0.6,0.7-1.5,1.1-2.5,1.1c-1,0-1.9-0.4-2.5-1.1c-0.6-0.7-1-1.8-1-3.1v-11.5c0-2.3-0.3-4-0.9-5.2
				c-0.6-1.2-1.9-1.8-3.8-1.8c-1.2,0-2.3,0.4-3.4,1.1c-1,0.7-1.8,1.7-2.2,3c-0.3,1-0.5,2.9-0.5,5.8v8.7c0,1.4-0.3,2.4-1,3.1
				c-0.6,0.7-1.5,1.1-2.5,1.1c-1,0-1.8-0.4-2.5-1.1c-0.6-0.7-1-1.8-1-3.1v-20c0-1.3,0.3-2.3,0.9-2.9c0.6-0.6,1.4-1,2.3-1
				c0.6,0,1.2,0.1,1.6,0.4c0.5,0.3,0.9,0.7,1.2,1.3C381.8,426.8,381.9,427.5,381.9,428.4L381.9,428.4z M413.9,428.5v20
				c0,1.4-0.3,2.4-1,3.1c-0.7,0.7-1.5,1.1-2.5,1.1c-1,0-1.8-0.4-2.5-1.1c-0.6-0.7-0.9-1.8-0.9-3.1v-19.8c0-1.4,0.3-2.4,0.9-3.1
				c0.6-0.7,1.5-1,2.5-1c1,0,1.8,0.3,2.5,1C413.5,426.3,413.9,427.2,413.9,428.5L413.9,428.5z M410.5,421.3c-1,0-1.8-0.3-2.5-0.9
				c-0.7-0.6-1-1.4-1-2.5c0-1,0.3-1.8,1-2.4c0.7-0.6,1.5-0.9,2.4-0.9c0.9,0,1.7,0.3,2.4,0.9c0.7,0.6,1,1.4,1,2.5
				c0,1.1-0.3,1.9-1,2.5C412.2,421,411.4,421.3,410.5,421.3z M439.8,432.5l-12.6,14.1h13.5c1.1,0,1.9,0.3,2.5,0.8
				c0.6,0.5,0.8,1.2,0.8,2c0,0.8-0.3,1.4-0.8,1.9c-0.6,0.5-1.4,0.7-2.5,0.7h-18.7c-1.3,0-2.3-0.3-2.9-0.9c-0.6-0.6-1-1.4-1-2.3
				c0-0.6,0.2-1.2,0.7-1.8c0.5-0.6,1.4-1.7,2.8-3.3c1.5-1.7,2.9-3.2,4.1-4.6c1.2-1.4,2.4-2.6,3.5-3.8c1.1-1.2,1.9-2.2,2.6-3
				c0.7-0.8,1.3-1.5,1.7-2.1h-10.3c-1.4,0-2.5-0.1-3.2-0.4c-0.7-0.3-1.1-0.9-1.1-2c0-0.8,0.3-1.4,0.8-1.9c0.5-0.5,1.3-0.7,2.3-0.7
				h15.9c1.5,0,2.6,0.2,3.4,0.6c0.8,0.4,1.2,1.2,1.2,2.3c0,0.4-0.1,0.8-0.2,1.1c-0.2,0.4-0.3,0.7-0.5,1c-0.2,0.3-0.4,0.6-0.8,0.9
				C440.6,431.5,440.2,432,439.8,432.5L439.8,432.5z M465.5,448.7c-1.7,1.3-3.3,2.3-4.8,2.9c-1.6,0.6-3.3,1-5.2,1
				c-1.8,0-3.3-0.4-4.7-1.1c-1.3-0.7-2.4-1.6-3.1-2.8c-0.7-1.2-1.1-2.5-1.1-3.9c0-1.9,0.6-3.5,1.8-4.8c1.2-1.3,2.8-2.2,4.9-2.7
				c0.4-0.1,1.5-0.3,3.3-0.7s3.2-0.7,4.5-1c1.2-0.3,2.6-0.6,4-1.1c-0.1-1.8-0.4-3.2-1.1-4c-0.7-0.9-2-1.3-4-1.3
				c-1.8,0-3.1,0.2-4,0.7c-0.9,0.5-1.6,1.2-2.3,2.2c-0.6,1-1.1,1.6-1.3,1.9c-0.3,0.3-0.8,0.5-1.7,0.5c-0.8,0-1.5-0.3-2-0.8
				c-0.6-0.5-0.8-1.1-0.8-1.9c0-1.2,0.4-2.4,1.3-3.5c0.9-1.1,2.2-2.1,4-2.8c1.8-0.7,4.1-1.1,6.8-1.1c3,0,5.4,0.4,7.2,1.1
				c1.7,0.7,3,1.8,3.7,3.4c0.7,1.6,1.1,3.6,1.1,6.2c0,1.6,0,3,0,4.1c0,1.1,0,2.4,0,3.8c0,1.3,0.2,2.7,0.6,4.1
				c0.4,1.4,0.6,2.3,0.6,2.7c0,0.7-0.3,1.4-1,1.9c-0.7,0.6-1.4,0.9-2.3,0.9c-0.7,0-1.4-0.3-2.1-1C467,451,466.2,450,465.5,448.7
				L465.5,448.7z M465,438.7c-1,0.4-2.5,0.8-4.4,1.2c-1.9,0.4-3.3,0.7-4,0.9c-0.7,0.2-1.5,0.6-2.1,1.1c-0.7,0.6-1,1.4-1,2.4
				c0,1,0.4,1.9,1.2,2.7c0.8,0.7,1.8,1.1,3.1,1.1c1.4,0,2.6-0.3,3.8-0.9c1.2-0.6,2-1.4,2.5-2.3c0.6-1,0.9-2.8,0.9-5.2L465,438.7
				L465,438.7z M497.7,448.7V448c-0.9,1.1-1.8,1.9-2.7,2.6c-0.9,0.7-1.9,1.2-2.9,1.5c-1.1,0.3-2.2,0.5-3.5,0.5
				c-1.6,0-3.2-0.4-4.6-1.1c-1.4-0.7-2.6-1.7-3.7-3c-1-1.3-1.8-2.8-2.3-4.6c-0.5-1.8-0.8-3.7-0.8-5.7c0-4.3,1.1-7.7,3.2-10.1
				c2.1-2.4,4.9-3.6,8.3-3.6c2,0,3.7,0.3,5,1c1.4,0.7,2.7,1.7,4,3.2v-10.2c0-1.4,0.3-2.5,0.8-3.2c0.6-0.7,1.4-1.1,2.4-1.1
				c1,0,1.8,0.3,2.4,1c0.6,0.7,0.8,1.6,0.8,2.9v30.4c0,1.3-0.3,2.3-0.9,3c-0.6,0.7-1.4,1-2.4,1c-0.9,0-1.7-0.3-2.3-1
				C498,450.9,497.7,449.9,497.7,448.7L497.7,448.7z M484.1,438.5c0,1.9,0.3,3.5,0.9,4.8c0.6,1.3,1.4,2.3,2.4,3c1,0.7,2.1,1,3.3,1
				c1.2,0,2.3-0.3,3.3-0.9c1-0.6,1.8-1.6,2.4-2.9c0.6-1.3,0.9-2.9,0.9-4.9c0-1.8-0.3-3.4-0.9-4.7c-0.6-1.3-1.4-2.3-2.4-3
				c-1-0.7-2.1-1-3.3-1c-1.3,0-2.4,0.4-3.4,1.1c-1,0.7-1.8,1.7-2.3,3.1C484.4,435.2,484.1,436.8,484.1,438.5L484.1,438.5z
				 M528.6,448.7c-1.7,1.3-3.3,2.3-4.8,2.9c-1.6,0.6-3.3,1-5.2,1c-1.8,0-3.3-0.4-4.7-1.1c-1.3-0.7-2.4-1.6-3.1-2.8
				c-0.7-1.2-1.1-2.5-1.1-3.9c0-1.9,0.6-3.5,1.8-4.8c1.2-1.3,2.8-2.2,4.9-2.7c0.4-0.1,1.5-0.3,3.3-0.7s3.2-0.7,4.5-1
				c1.2-0.3,2.6-0.6,4-1.1c-0.1-1.8-0.4-3.2-1.1-4c-0.7-0.9-2-1.3-4-1.3c-1.8,0-3.1,0.2-4,0.7c-0.9,0.5-1.6,1.2-2.3,2.2
				c-0.6,1-1.1,1.6-1.3,1.9c-0.3,0.3-0.8,0.5-1.7,0.5c-0.8,0-1.5-0.3-2-0.8c-0.6-0.5-0.8-1.1-0.8-1.9c0-1.2,0.4-2.4,1.3-3.5
				c0.9-1.1,2.2-2.1,4-2.8c1.8-0.7,4.1-1.1,6.8-1.1c3,0,5.4,0.4,7.2,1.1c1.7,0.7,3,1.8,3.7,3.4c0.7,1.6,1.1,3.6,1.1,6.2
				c0,1.6,0,3,0,4.1c0,1.1,0,2.4,0,3.8c0,1.3,0.2,2.7,0.6,4.1c0.4,1.4,0.6,2.3,0.6,2.7c0,0.7-0.3,1.4-1,1.9
				c-0.7,0.6-1.4,0.9-2.3,0.9c-0.7,0-1.4-0.3-2.1-1C530.1,451,529.4,450,528.6,448.7L528.6,448.7z M528.1,438.7
				c-1,0.4-2.5,0.8-4.4,1.2c-1.9,0.4-3.3,0.7-4,0.9c-0.7,0.2-1.5,0.6-2.1,1.1c-0.7,0.6-1,1.4-1,2.4c0,1,0.4,1.9,1.2,2.7
				c0.8,0.7,1.8,1.1,3.1,1.1c1.4,0,2.6-0.3,3.8-0.9c1.2-0.6,2-1.4,2.5-2.3c0.6-1,0.9-2.8,0.9-5.2L528.1,438.7L528.1,438.7z
				 M574.1,440.3h-13.5c0,1.6,0.3,3,0.9,4.2c0.6,1.2,1.4,2.1,2.5,2.7c1,0.6,2.1,0.9,3.4,0.9c0.8,0,1.6-0.1,2.3-0.3
				c0.7-0.2,1.3-0.5,2-0.9c0.6-0.4,1.2-0.9,1.8-1.3c0.5-0.5,1.2-1.1,2.1-1.9c0.4-0.3,0.9-0.5,1.5-0.5c0.7,0,1.3,0.2,1.7,0.6
				c0.4,0.4,0.7,0.9,0.7,1.6c0,0.6-0.3,1.3-0.7,2.2c-0.5,0.8-1.2,1.6-2.2,2.4c-1,0.8-2.2,1.4-3.7,1.9c-1.5,0.5-3.2,0.8-5.1,0.8
				c-4.4,0-7.9-1.3-10.3-3.8c-2.5-2.5-3.7-6-3.7-10.3c0-2,0.3-3.9,0.9-5.7c0.6-1.7,1.5-3.2,2.7-4.5c1.2-1.2,2.6-2.2,4.3-2.9
				c1.7-0.7,3.6-1,5.7-1c2.7,0,5,0.6,6.9,1.7c1.9,1.1,3.4,2.6,4.3,4.4c1,1.8,1.4,3.6,1.4,5.5c0,1.7-0.5,2.9-1.5,3.4
				C577.3,440,576,440.3,574.1,440.3L574.1,440.3z M560.6,436.3h12.5c-0.2-2.4-0.8-4.1-1.9-5.3c-1.1-1.2-2.6-1.8-4.4-1.8
				c-1.7,0-3.1,0.6-4.2,1.8C561.5,432.3,560.9,434,560.6,436.3L560.6,436.3z M608.6,439.1v9.2c0,1.5-0.3,2.5-1,3.3
				c-0.7,0.7-1.5,1.1-2.6,1.1c-1,0-1.9-0.4-2.5-1.1c-0.6-0.7-1-1.8-1-3.3v-11c0-1.7-0.1-3.1-0.2-4c-0.1-1-0.4-1.8-1-2.4
				s-1.3-0.9-2.5-0.9c-2.3,0-3.7,0.8-4.5,2.3c-0.7,1.5-1.1,3.8-1.1,6.7v9.3c0,1.4-0.3,2.5-1,3.3c-0.6,0.7-1.5,1.1-2.6,1.1
				c-1,0-1.9-0.4-2.6-1.1c-0.7-0.7-1-1.8-1-3.3v-19.8c0-1.3,0.3-2.3,0.9-3c0.6-0.7,1.4-1,2.4-1c0.9,0,1.7,0.3,2.4,0.9
				c0.6,0.6,0.9,1.5,0.9,2.6v0.7c1.2-1.4,2.5-2.5,3.8-3.2c1.4-0.7,2.9-1,4.5-1c1.7,0,3.2,0.3,4.5,1c1.3,0.7,2.3,1.7,3.1,3.1
				c1.2-1.4,2.4-2.5,3.7-3.1c1.3-0.7,2.8-1,4.4-1c1.9,0,3.5,0.4,4.9,1.1c1.4,0.7,2.4,1.8,3.1,3.2c0.6,1.2,0.9,3.2,0.9,5.9v13.5
				c0,1.5-0.3,2.5-1,3.3c-0.7,0.7-1.5,1.1-2.6,1.1c-1,0-1.9-0.4-2.6-1.1c-0.7-0.7-1-1.8-1-3.3v-11.6c0-1.5-0.1-2.7-0.2-3.6
				c-0.1-0.9-0.5-1.6-1-2.3c-0.6-0.6-1.4-0.9-2.5-0.9c-0.9,0-1.8,0.3-2.6,0.8c-0.8,0.5-1.5,1.3-1.9,2.2
				C608.9,434.1,608.6,436.1,608.6,439.1L608.6,439.1z M650.4,419.2l8.4,24.9l8.4-25c0.4-1.3,0.8-2.2,1-2.7c0.2-0.5,0.6-1,1.1-1.4
				c0.5-0.4,1.2-0.6,2.1-0.6c0.6,0,1.2,0.2,1.8,0.5c0.5,0.3,1,0.7,1.3,1.3c0.3,0.5,0.5,1.1,0.5,1.6c0,0.4-0.1,0.8-0.2,1.2
				c-0.1,0.4-0.2,0.8-0.4,1.3c-0.2,0.4-0.3,0.8-0.5,1.3l-9,24.2c-0.3,0.9-0.6,1.8-1,2.6c-0.3,0.8-0.7,1.6-1.1,2.2
				c-0.4,0.6-1,1.1-1.7,1.6c-0.7,0.4-1.6,0.6-2.6,0.6c-1,0-1.9-0.2-2.6-0.6s-1.3-0.9-1.7-1.6c-0.4-0.7-0.8-1.4-1.1-2.2
				c-0.3-0.8-0.6-1.7-1-2.6l-8.8-24c-0.2-0.4-0.3-0.9-0.5-1.3c-0.2-0.4-0.3-0.9-0.4-1.4c-0.1-0.5-0.2-0.9-0.2-1.2
				c0-0.9,0.3-1.6,1-2.3c0.7-0.7,1.6-1.1,2.6-1.1c1.3,0,2.2,0.4,2.7,1.2C649.3,416.2,649.9,417.5,650.4,419.2L650.4,419.2z
				 M703.4,438.6c0,2.1-0.3,4-1,5.7c-0.6,1.7-1.6,3.2-2.8,4.5c-1.2,1.3-2.7,2.2-4.4,2.9c-1.7,0.7-3.6,1-5.7,1c-2.1,0-4-0.3-5.6-1
				c-1.7-0.7-3.1-1.6-4.3-2.9c-1.2-1.3-2.1-2.7-2.8-4.4c-0.6-1.7-0.9-3.6-0.9-5.7c0-2.1,0.3-4,1-5.7c0.6-1.7,1.6-3.2,2.8-4.5
				c1.2-1.2,2.7-2.2,4.4-2.8s3.6-1,5.6-1c2.1,0,4,0.3,5.7,1c1.7,0.7,3.2,1.6,4.4,2.9c1.2,1.2,2.1,2.7,2.8,4.5
				C703,434.6,703.4,436.5,703.4,438.6L703.4,438.6z M696.4,438.6c0-2.8-0.6-5-1.9-6.6c-1.2-1.6-2.9-2.3-5-2.3c-1.4,0-2.5,0.3-3.6,1
				c-1,0.7-1.8,1.7-2.4,3.1c-0.6,1.4-0.8,3-0.8,4.8c0,1.8,0.3,3.4,0.8,4.7c0.6,1.3,1.3,2.4,2.3,3.1c1,0.7,2.2,1.1,3.6,1.1
				c2.1,0,3.7-0.8,5-2.4C695.8,443.5,696.4,441.4,696.4,438.6z M733.6,444.1c0,0.9-0.3,1.8-0.8,2.8c-0.5,1-1.3,1.9-2.3,2.8
				c-1.1,0.9-2.4,1.6-4,2.1c-1.6,0.5-3.4,0.8-5.4,0.8c-4.3,0-7.6-1.2-10-3.7c-2.4-2.5-3.6-5.8-3.6-10c0-2.8,0.6-5.3,1.6-7.5
				c1.1-2.2,2.7-3.9,4.8-5c2.1-1.2,4.6-1.8,7.4-1.8c1.8,0,3.4,0.3,4.9,0.8c1.5,0.5,2.8,1.2,3.8,2c1,0.8,1.8,1.7,2.4,2.6
				c0.6,0.9,0.8,1.8,0.8,2.6c0,0.8-0.3,1.5-0.9,2.1c-0.6,0.6-1.4,0.9-2.2,0.9c-0.6,0-1-0.1-1.4-0.4c-0.4-0.3-0.8-0.8-1.3-1.4
				c-0.8-1.3-1.7-2.2-2.6-2.9c-0.9-0.6-2.1-1-3.5-1c-2,0-3.7,0.8-4.9,2.4c-1.3,1.6-1.9,3.8-1.9,6.5c0,1.3,0.2,2.5,0.5,3.6
				c0.3,1.1,0.8,2,1.4,2.8c0.6,0.8,1.3,1.3,2.2,1.7c0.9,0.4,1.8,0.6,2.8,0.6c1.4,0,2.6-0.3,3.5-1c1-0.6,1.9-1.6,2.6-2.9
				c0.4-0.8,0.9-1.4,1.4-1.8c0.5-0.4,1.1-0.7,1.8-0.7c0.8,0,1.5,0.3,2.1,1C733.3,442.7,733.6,443.3,733.6,444.1L733.6,444.1z"/>
			<path class="st7" d="M758.8,440.3h-13.5c0,1.6,0.3,3,0.9,4.2c0.6,1.2,1.4,2.1,2.5,2.7c1,0.6,2.1,0.9,3.4,0.9
				c0.8,0,1.6-0.1,2.3-0.3c0.7-0.2,1.3-0.5,2-0.9c0.6-0.4,1.2-0.9,1.8-1.3c0.5-0.5,1.2-1.1,2.1-1.9c0.4-0.3,0.9-0.5,1.5-0.5
				c0.7,0,1.3,0.2,1.7,0.6c0.4,0.4,0.7,0.9,0.7,1.6c0,0.6-0.3,1.3-0.7,2.2c-0.5,0.8-1.2,1.6-2.2,2.4c-1,0.8-2.2,1.4-3.7,1.9
				c-1.5,0.5-3.2,0.8-5.1,0.8c-4.4,0-7.9-1.3-10.3-3.8c-2.5-2.5-3.7-6-3.7-10.3c0-2,0.3-3.9,0.9-5.7c0.6-1.7,1.5-3.2,2.7-4.5
				c1.2-1.2,2.6-2.2,4.3-2.9c1.7-0.7,3.6-1,5.7-1c2.7,0,5,0.6,6.9,1.7c1.9,1.1,3.4,2.6,4.3,4.4c1,1.8,1.4,3.6,1.4,5.5
				c0,1.7-0.5,2.9-1.5,3.4C762,440,760.6,440.3,758.8,440.3L758.8,440.3z M745.3,436.3h12.5c-0.2-2.4-0.8-4.1-1.9-5.3
				c-1.1-1.2-2.6-1.8-4.4-1.8c-1.7,0-3.1,0.6-4.2,1.8C746.2,432.3,745.6,434,745.3,436.3L745.3,436.3z M752.9,419.8l-2.5-3l-2.5,3
				c-0.7,0.8-1.2,1.4-1.4,1.5c-0.3,0.2-0.7,0.3-1.4,0.3h-2c-0.7,0-1-0.1-1-0.4c0-0.2,0.3-0.6,0.8-1.3l2.8-3.4c0.2-0.3,0.5-0.6,0.8-1
				c0.3-0.4,0.6-0.6,0.8-0.8c0.2-0.2,0.6-0.3,1-0.4c0.4-0.1,0.9-0.1,1.5-0.1h1.4c1.1,0,1.9,0.1,2.3,0.4c0.4,0.3,1,0.9,1.8,1.9
				l2.9,3.4c0.5,0.6,0.7,1,0.7,1.1c0,0.3-0.4,0.4-1.1,0.4h-1.9c-0.5,0-0.9-0.1-1.2-0.2c-0.3-0.1-0.6-0.4-0.8-0.7
				C753.5,420.4,753.2,420.1,752.9,419.8L752.9,419.8z"/>
		</g>
		<path class="st6" d="M823,444.4v26h-6.5v-14c0-2,0-3.2-0.1-3.6c-0.1-0.4-0.4-0.7-0.8-0.9s-1.4-0.3-2.9-0.3h-0.6v-3
			c3.1-0.7,5.5-2.1,7.1-4.2L823,444.4L823,444.4z M840.9,453.2v8.7c0,2-0.1,3.4-0.3,4.3c-0.2,0.9-0.7,1.7-1.3,2.5
			c-0.7,0.8-1.5,1.3-2.4,1.7c-0.9,0.3-2,0.5-3.2,0.5c-1.6,0-2.8-0.2-3.9-0.5c-1-0.4-1.8-0.9-2.5-1.7c-0.6-0.8-1-1.6-1.3-2.4
			c-0.3-0.8-0.4-2.2-0.4-4v-9.1c0-2.4,0.2-4.2,0.6-5.4c0.4-1.2,1.2-2.1,2.5-2.9c1.2-0.7,2.7-1.1,4.5-1.1c1.4,0,2.7,0.2,3.8,0.7
			c1.1,0.5,2,1.1,2.5,1.8c0.6,0.7,0.9,1.5,1.1,2.4C840.8,449.8,840.9,451.2,840.9,453.2z M834.4,451c0-1.4-0.1-2.2-0.2-2.6
			c-0.1-0.3-0.4-0.5-0.9-0.5c-0.5,0-0.8,0.2-1,0.6c-0.2,0.4-0.2,1.2-0.2,2.6v12.7c0,1.5,0.1,2.4,0.2,2.7c0.1,0.3,0.5,0.5,0.9,0.5
			c0.5,0,0.8-0.2,0.9-0.5c0.1-0.4,0.2-1.2,0.2-2.5V451z M856.5,444.4v17h1.8v4.4h-1.8v4.6H850v-4.6h-7.7v-4.4l5.6-17H856.5z
			 M850,461.4v-11.1l-2.9,11.1H850z M863.4,465.3v2.3c0,1.2-0.1,2.2-0.4,3c-0.3,0.8-0.8,1.4-1.5,2c-0.7,0.5-1.5,0.9-2.4,1.1v-1.9
			c0.6-0.4,1-0.8,1.1-1.4h-1.1v-5.1H863.4z M865.2,463.5h6.5c0,1.2,0,2,0,2.3c0,0.3,0.2,0.6,0.4,0.8c0.2,0.2,0.5,0.3,0.9,0.3
			c0.3,0,0.6-0.1,0.8-0.3c0.2-0.2,0.3-0.5,0.4-0.8c0-0.3,0-1,0-1.9v-4.1c-0.3,0.7-0.8,1.2-1.4,1.6c-0.6,0.3-1.4,0.5-2.4,0.5
			c-1.2,0-2.2-0.3-3.2-1c-0.9-0.6-1.5-1.4-1.7-2.3c-0.2-0.9-0.4-2.1-0.4-3.7v-2.1c0-1.8,0.1-3.2,0.2-4.1c0.1-0.9,0.5-1.7,1.1-2.5
			c0.6-0.8,1.4-1.3,2.5-1.8c1.1-0.4,2.3-0.6,3.7-0.6c1.7,0,3.2,0.2,4.3,0.7c1.1,0.5,2,1.2,2.6,2.1c0.6,0.9,1,1.9,1.1,2.9
			c0.1,1,0.1,2.9,0.1,5.8v3.6c0,3.1,0,5.2-0.1,6.2c-0.1,1-0.5,2-1.1,3c-0.7,0.9-1.6,1.6-2.7,2.1c-1.1,0.5-2.4,0.7-3.9,0.7
			c-1.8,0-3.3-0.3-4.5-0.9c-1.2-0.6-2-1.4-2.5-2.5C865.4,466.5,865.2,465.1,865.2,463.5L865.2,463.5z M871.6,455.4
			c0,1.1,0.1,1.8,0.4,2c0.3,0.3,0.6,0.4,0.9,0.4c0.5,0,0.8-0.2,1-0.5c0.2-0.3,0.3-1,0.3-1.9v-4.7c0-1.1-0.1-1.9-0.3-2.2
			c-0.2-0.4-0.5-0.5-1-0.5c-0.3,0-0.6,0.1-0.9,0.4c-0.3,0.3-0.5,1-0.5,2.2L871.6,455.4L871.6,455.4z"/>
	</g>
</g>
</svg>
