<?xml version="1.0" encoding="UTF-8"?>
<!DOCTYPE svg PUBLIC "-//W3C//DTD SVG 1.1//EN" "http://www.w3.org/Graphics/SVG/1.1/DTD/svg11.dtd">
<!-- Creator: CorelDRAW 2020 (64 Bit) -->
<svg xmlns="http://www.w3.org/2000/svg" xml:space="preserve" width="420mm" height="297mm" version="1.1" style="shape-rendering:geometricPrecision; text-rendering:geometricPrecision; image-rendering:optimizeQuality; fill-rule:evenodd; clip-rule:evenodd"
viewBox="0 0 42000 29700"
 xmlns:xlink="http://www.w3.org/1999/xlink"
 xmlns:xodm="http://www.corel.com/coreldraw/odm/2003">
 <defs>
  <style type="text/css">
   <![CDATA[
    .fil2 {fill:none}
    .fil3 {fill:white}
    .fil1 {fill:white}
    .fil0 {fill:#707071}
    .fil5 {fill:white;fill-rule:nonzero}
    .fil4 {fill:#707071;fill-rule:nonzero}
   ]]>
  </style>
    <clipPath id="id0">
     <path d="M11130.02 14707.97l24438.43 0 0 7884.68 -24438.43 0c-1973.45,0 -2593.09,-3171.83 -3582.79,-4879.23l-454.5 -784.06 -318.05 -812.97 -257.49 -1724.33c-80.63,-540.04 2639.32,315.91 4612.83,315.91z"/>
    </clipPath>
     <clipPath id="id1">
      <path d="M5830.51 7821.23l13141.66 0 0 13141.65 -13141.66 0 0 -13141.65z"/>
     </clipPath>
 </defs>
 <g id="Camada_x0020_1">
  <metadata id="CorelCorpID_0Corel-Layer"/>
  <g id="_1658375696592">
   <g>
    <path class="fil0" d="M28061.27 11327.01c304.42,18.46 608.84,36.87 913.26,55.33 202.91,-544.25 405.87,-1088.5 502.72,-1379.06 96.86,-290.61 87.6,-327.48 73.79,-50.73 -13.86,276.7 -32.26,867.08 -50.72,1457.45 332.08,27.67 664.16,55.39 839.46,59.99 175.25,4.6 193.65,-13.86 212.11,-32.32 92.26,-175.25 184.51,-350.55 267.55,-604.18 83,-253.69 156.79,-585.78 138.33,-1093.11 -18.46,-507.38 -129.12,-1190 -253.64,-1775.78 -124.57,-585.77 -262.89,-1074.64 -401.27,-1563.56 -322.88,258.29 -645.71,516.59 -931.66,853.32 -286.01,336.69 -535.05,751.77 -751.82,1236.08 -216.82,484.27 -401.27,1037.78 -488.92,1522.1 -87.65,484.26 -78.39,899.34 -69.19,1314.47z"/>
    <path class="fil0" d="M30911.69 11465.39c83,-119.92 166.05,-239.89 221.38,-387.47 55.33,-147.58 83.04,-322.88 83.04,-516.58 0,-193.71 -27.71,-405.88 -46.12,-511.94 -18.46,-106.11 -27.72,-106.11 82.99,-156.83 110.71,-50.73 341.29,-152.24 567.32,-212.17 225.97,-59.98 447.39,-78.39 784.08,-55.33 336.68,23.06 788.73,87.6 1180.8,304.42 392.02,216.77 724.1,585.72 1056.18,954.72 -156.83,-64.58 -313.62,-129.12 -493.52,-165.98 -179.9,-36.93 -382.81,-46.18 -592.68,11.5 -209.86,57.63 -426.68,182.15 -583.47,329.73 -156.84,147.58 -253.69,318.28 -350.54,488.92 -636.5,-27.66 -1272.95,-55.33 -1909.46,-82.99z"/>
   </g>
   <path class="fil0" d="M11130.02 14707.97l24438.43 0 0 7884.68 -24438.43 0c-1973.45,0 -2593.09,-3171.83 -3582.79,-4879.23l-454.5 -784.06 -318.05 -812.97 -257.49 -1724.33c-80.63,-540.04 2639.32,315.91 4612.83,315.91z"/>
   <g style="clip-path:url(#id0)">
    <g>
     <polygon id="1" class="fil1" points="8647.84,20264.68 9973.68,20203.16 8647.84,20125.58 "/>
     <polygon class="fil1" points="8579.02,20421.42 9904.86,20359.9 8579.02,20282.33 "/>
     <polygon class="fil1" points="8647.84,20539.94 9973.68,20478.42 8647.84,20400.84 "/>
     <polygon class="fil1" points="8579.02,20677.23 9904.86,20615.71 8579.02,20538.13 "/>
     <polygon class="fil1" points="8647.84,20780.03 9973.68,20718.51 8647.84,20640.94 "/>
     <polygon class="fil1" points="8579.02,20936.78 9904.86,20875.26 8579.02,20797.68 "/>
     <polygon class="fil1" points="8647.84,21055.29 9973.68,20993.77 8647.84,20916.2 "/>
     <polygon class="fil1" points="8579.02,21192.58 9904.86,21131.06 8579.02,21053.49 "/>
     <polygon class="fil1" points="8647.84,21295.39 9973.68,21233.86 8647.84,21156.29 "/>
     <polygon class="fil1" points="8579.02,21452.13 9904.86,21390.61 8579.02,21313.04 "/>
     <polygon class="fil1" points="8647.84,21570.64 9973.68,21509.12 8647.84,21431.55 "/>
     <polygon class="fil1" points="8579.02,21707.94 9904.86,21646.41 8579.02,21568.84 "/>
     <polygon class="fil1" points="8647.84,21810.74 9973.68,21749.22 8647.84,21671.65 "/>
     <polygon class="fil1" points="8579.02,21967.49 9904.86,21905.96 8579.02,21828.39 "/>
     <polygon class="fil1" points="8647.84,22086 9973.68,22024.48 8647.84,21946.9 "/>
     <polygon class="fil1" points="8579.02,22223.29 9904.86,22161.77 8579.02,22084.2 "/>
    </g>
   </g>
   <path class="fil2" d="M11130.02 14707.97l24438.43 0 0 7884.68 -24438.43 0c-1973.45,0 -2593.09,-3171.83 -3582.79,-4879.23l-454.5 -784.06 -318.05 -812.97 -257.49 -1724.33c-80.63,-540.04 2639.32,315.91 4612.83,315.91z"/>
   <path class="fil0" d="M14056.57 11466.79l17925.82 0c1973.51,0 3588.2,1614.69 3588.2,3588.2l0 708.28c0,1973.51 -1614.69,3588.2 -3588.2,3588.2l-17925.82 0c-1973.51,0 -3588.21,-1614.69 -3588.21,-3588.2l0 -708.28c0,-1973.51 1614.7,-3588.2 3588.21,-3588.2z"/>
   <path class="fil3" d="M14056.57 11284.34l17925.82 0c1973.51,0 3588.2,1614.69 3588.2,3588.2l0 708.28c0,1973.51 -1614.69,3588.2 -3588.2,3588.2l-17925.82 0c-1973.51,0 -3588.21,-1614.69 -3588.21,-3588.2l0 -708.28c0,-1973.51 1614.7,-3588.2 3588.21,-3588.2z"/>
   <g>
    <g style="clip-path:url(#id1)">
     <image x="5830.51" y="7821.23" width="13141.66" height="13141.65" xlink:href="brotofmPB_Images\brotofmPB_ImgID1.png"/>
    </g>
   </g>
   <g>
    <path class="fil1" d="M12401.34 20258.87c-3240.14,0 -5866.82,-2626.67 -5866.82,-5866.81 0,-3240.15 2626.68,-5866.82 5866.82,-5866.82 3240.15,0 5866.82,2626.67 5866.82,5866.82 0,3240.14 -2626.67,5866.81 -5866.82,5866.81z"/>
    <path class="fil0" d="M12401.34 8741.4c-3120.79,0 -5650.66,2529.86 -5650.66,5650.66 0,3120.79 2529.87,5650.65 5650.66,5650.65 3120.79,0 5650.66,-2529.86 5650.66,-5650.65 0,-3120.8 -2529.87,-5650.66 -5650.66,-5650.66z"/>
    <path class="fil1" d="M8368.93 17756.71c0,-518.93 0,-1037.86 211.48,-1422.28 211.39,-384.33 634.16,-634.25 1095.47,-826.46 461.31,-192.21 961.06,-326.72 1403.18,-672.7 442.05,-345.98 826.38,-903.35 970.56,-1470.3 144.09,-567.05 48.03,-1143.6 -173.03,-1691.38 -221.07,-547.78 -566.96,-1066.7 -941.71,-1335.8 -374.83,-269.09 -778.52,-288.27 -961.05,-307.45 -182.62,-19.26 -144.18,-38.53 -105.74,-57.7 384.42,-115.33 768.85,-230.66 1278.18,-288.28 509.34,-57.7 1143.59,-57.7 1729.82,76.89 586.22,134.5 1124.32,403.51 1654.49,790.46 530.17,386.86 1052.24,891.58 1393.77,1583.1 341.54,691.53 502.45,1569.77 509.17,2330.77 6.71,761 -140.78,1404.58 -408.92,1981.21 -268.22,576.64 -657.09,1086.15 -1133.13,1515.29 -476.04,429.14 -1039.16,777.74 -1573.78,970.38 -534.62,192.65 -1040.73,229.17 -1533.94,189.77 -493.3,-39.31 -973.87,-154.64 -1425.5,-308.41 -451.72,-153.77 -874.49,-345.98 -1297.36,-538.19 499.75,-115.32 999.41,-230.65 1576.05,-413.27 576.63,-182.54 1230.06,-432.46 1739.4,-720.73 509.33,-288.27 874.49,-614.99 1134,-989.82 259.42,-374.75 413.19,-797.61 490.07,-1009.09 76.89,-211.39 76.89,-211.39 76.89,-211.39 -172.95,269.1 -345.98,538.19 -586.23,816.88 -240.24,278.68 -547.69,567.04 -960.88,836.05 -413.27,269.1 -932.29,519.01 -1403.18,682.37 -470.9,163.36 -893.67,240.24 -1345.3,307.45 -451.72,67.3 -932.29,125.01 -1412.78,182.63z"/>
   </g>
   <path class="fil1" d="M12081.82 20805.43c266.61,0 482.74,216.12 482.74,482.73 0,266.61 -216.13,482.73 -482.74,482.73 -266.6,0 -482.73,-216.12 -482.73,-482.73 0,-266.61 216.13,-482.73 482.73,-482.73z"/>
   <g>
    <g>
     <path class="fil0" d="M8180.24 19722.36c1.61,-322.89 -2125.76,-3684.81 -2414.14,-3821.41 -39.2,298.1 1664.44,2857.75 2068.13,3422.45 68.39,95.67 236.56,365.11 346.01,398.96z"/>
     <path class="fil0" d="M7338.82 19556.04c-0.62,-284.45 -1522.83,-2700.98 -1782.12,-2820.97 -9.12,233.35 1395.71,2459.17 1697.93,2757.68l84.19 63.29z"/>
     <path class="fil0" d="M6508.4 19360.51c-64.61,-274.63 -913.18,-1616.82 -1133.9,-1794.88 -23.51,27.31 -75.04,-22.06 36.49,198.19 150.84,297.99 806.79,1385.86 1003.81,1566.5 99.24,91.02 43.56,43.48 93.6,30.19z"/>
     <path class="fil0" d="M5334.72 18844.23c93.47,148.17 197.6,303.11 320.52,380.04 33.72,-159.19 -343.9,-778.85 -515.96,-831.57 -6.1,136.79 106.06,309.83 195.44,451.53z"/>
    </g>
    <g>
     <path class="fil0" d="M19006.17 12883.18c-292.28,-137.22 -2414.64,-3502.31 -2414.13,-3821.4 286.03,92.62 1865.87,2730.49 2202.45,3337.59 57.02,102.84 228.12,370.44 211.68,483.81z"/>
     <path class="fil0" d="M19217.36 12051.89c-256.61,-122.73 -1785.12,-2535.27 -1782.12,-2820.97 214.64,91.99 1621.35,2316.62 1761.12,2717.76l21 103.21z"/>
     <path class="fil0" d="M19397.44 11217.99c-220.26,-176.31 -1067.89,-1519.09 -1133.9,-1794.88 34.77,-9.51 12.31,-77.25 163.32,118.06 204.31,264.21 905,1323.82 983.52,1579.32 39.58,128.72 20.55,58.02 -12.94,97.5z"/>
     <path class="fil0" d="M19435.29 9936.33c93.67,148.05 188.87,308.63 205.55,452.68 -158.25,-37.92 -555.66,-645.08 -529.36,-823.11 126.14,53.25 234.23,228.86 323.81,370.43z"/>
    </g>
   </g>
   <path class="fil0" d="M34657.41 23300.03c-1210.58,0 -2191.94,-981.36 -2191.94,-2191.94 0,-1210.59 981.36,-2191.95 2191.94,-2191.95 1210.59,0 2191.95,981.36 2191.95,2191.95 0,1210.58 -981.36,2191.94 -2191.95,2191.94z"/>
   <path class="fil1" d="M34657.41 19162.65c-1074.45,0 -1945.45,871 -1945.45,1945.45 0,1074.44 871,1945.44 1945.45,1945.44 1074.44,0 1945.44,-871 1945.44,-1945.44 0,-1074.45 -871,-1945.45 -1945.44,-1945.45z"/>
   <path class="fil4" d="M33500.38 19645.96l780.33 0 0 354.29 -318.41 0 0 338.59 282.53 0 0 336.34 -282.53 0 0 744.45 -461.92 0 0 -1773.67zm2314.07 0l0 1773.67 -403.62 0 -1.12 -1197.39 -160.32 1197.39 -282.53 0 -169.3 -1170.49 -1.12 1170.49 -403.62 0 0 -1773.67 596.09 0c16.81,107.26 35.12,233.58 54.93,377.83l65.4 450.33 105.02 -828.16 600.19 0z"/>
   <path class="fil4" d="M20153.69 16533.22l0 -664.6 1108.16 0c70.84,0 128.8,166.15 128.8,332.3 0,166.15 -57.96,332.3 -128.8,332.3l-1108.16 0zm954.15 -2599.22c70.3,0 128.25,166.15 128.25,331.04 0,166.15 -57.95,334.81 -128.79,334.81l-954.15 0 0 -665.85 954.69 0zm655.78 1215.91c150.79,-225.31 245.24,-590.33 245.24,-1064.86 4.29,-862.21 -304.81,-1330.45 -670.26,-1326.67l-2009.2 0 0 4952.98 2164.28 0c363.31,0 674.03,-464.46 669.73,-1329.19 0,-624.31 -160.45,-1052.27 -398.72,-1232.26l-1.07 0zm703.35 -2392.79l0 4954.24 823.75 0 0 -1208.35 735.74 0 397.65 1208.35 877.41 0 -460.98 -1389.6c138.46,-149.79 250.08,-378.87 333.79,-675.93 84.8,-302.08 127.19,-640.67 127.19,-1014.51 6.44,-1025.84 -363.31,-1884.27 -798.53,-1874.2l-2036.02 0zm1828.34 1450.02c100.36,0 180.85,187.55 180.85,424.18 0,115.8 -17.17,215.24 -53.66,299.57 -34.35,81.82 -76.74,122.1 -127.19,122.1l-1004.59 0 0 -845.85 1004.59 0zm2725.97 -1578.41c-795.31,3.78 -1446.26,542.5 -1443.04,2417.96l0 359.99c-3.22,1871.69 647.73,2414.19 1443.04,2417.96 794.23,-3.77 1444.64,-546.27 1441.95,-2417.96l0 -359.99c0,-1871.68 -646.65,-2417.96 -1441.95,-2417.96zm617.67 2657.12c4.83,810.6 -281.2,957.87 -617.67,967.94 -338.09,-10.07 -624.12,-157.34 -619.29,-967.94l0 -122.1c-4.83,-806.83 281.2,-954.09 619.29,-964.16 336.47,10.07 622.5,157.33 617.67,964.16l0 122.1zm2773.19 2425.51l0 -3383.39 979.37 0 0 -1570.85 -2782.49 0 0 1570.85 979.37 0 0 3383.39 823.75 0zm2568.73 -5082.63c-795.31,3.78 -1446.25,542.5 -1443.03,2417.96l0 359.99c-3.22,1871.69 647.72,2414.19 1443.03,2417.96 794.23,-3.77 1444.65,-546.27 1441.96,-2417.96l0 -359.99c0,-1871.68 -646.65,-2417.96 -1441.96,-2417.96zm617.68 2657.12c4.83,810.6 -281.2,957.87 -617.68,967.94 -338.08,-10.07 -624.11,-157.34 -619.28,-967.94l0 -122.1c-4.83,-806.83 281.2,-954.09 619.28,-964.16 336.48,10.07 622.51,157.33 617.68,964.16l0 122.1z"/>
   <g>
    <path class="fil5" d="M14493.46 21550.09c0,78.88 -20.41,149.85 -61.22,212.89 -40.51,63.05 -100.2,112.39 -178.78,148.02 -78.58,35.63 -171.78,53.3 -279.29,53.3 -129.13,0 -235.73,-24.37 -319.49,-72.79 -59.39,-35.03 -107.51,-81.93 -144.66,-140.41 -37.16,-58.47 -55.74,-115.43 -55.74,-170.86 0,-31.98 11.27,-59.39 33.5,-82.53 22.24,-22.85 50.56,-34.12 84.98,-34.12 28.02,0 51.47,8.84 70.66,26.81 19.49,17.66 35.93,44.16 49.64,79.49 16.45,41.42 34.72,76.44 53.91,104.16 19.49,28.02 46.6,51.17 81.62,69.44 35.33,17.97 81.32,27.11 138.58,27.11 78.27,0 142.23,-18.28 191.27,-54.83 49.03,-36.54 73.7,-82.23 73.7,-137.05 0,-43.55 -13.1,-78.88 -39.59,-105.68 -26.5,-27.11 -60.92,-47.82 -102.95,-62.14 -41.72,-14.31 -98.07,-29.54 -168.12,-45.68 -93.8,-21.93 -172.68,-47.82 -235.73,-77.06 -63.35,-29.54 -113.6,-69.74 -150.76,-120.6 -37.16,-50.87 -55.73,-113.91 -55.73,-189.75 0,-71.87 19.49,-135.83 58.78,-191.87 39.29,-55.74 96.24,-98.68 170.55,-128.83 74.32,-30.16 161.73,-45.08 262.23,-45.08 80.1,0 149.54,10.05 208.33,29.85 58.47,20.1 107.2,46.6 145.88,79.49 38.38,32.89 66.7,67.61 84.67,103.86 17.67,36.24 26.8,71.87 26.8,106.29 0,31.37 -11.27,60 -33.5,85.28 -22.23,25.28 -50.25,37.76 -83.45,37.76 -30.46,0 -53.3,-7.61 -69.14,-22.53 -15.83,-15.23 -32.89,-40.21 -51.16,-74.62 -24.06,-49.34 -52.39,-88.02 -85.89,-115.74 -33.2,-27.71 -86.8,-41.42 -160.81,-41.42 -68.22,0 -123.65,14.92 -165.38,45.08 -42.03,30.15 -63.04,66.09 -63.04,108.42 0,26.19 7,48.73 21.31,67.92 14.32,18.88 34.12,35.33 59.09,49.03 24.97,13.71 50.25,24.37 75.84,32.29 25.58,7.61 67.92,18.88 126.7,33.81 73.7,17.36 140.71,36.24 200.4,57.25 59.69,20.71 110.56,45.99 152.59,75.84 42.03,29.54 74.62,67.31 98.07,112.69 23.45,45.68 35.33,101.42 35.33,167.51zm451.36 -437.96l0 704.15c0,48.73 -11.57,85.58 -34.72,110.56 -23.14,24.97 -52.38,37.46 -88.02,37.46 -35.63,0 -64.56,-12.79 -86.8,-38.38 -22.23,-25.58 -33.5,-62.13 -33.5,-109.64l0 -696.84c0,-48.43 11.27,-84.67 33.5,-109.04 22.24,-24.36 51.17,-36.55 86.8,-36.55 35.64,0 64.88,12.19 88.02,36.55 23.15,24.37 34.72,58.48 34.72,101.73zm-120.3 -251.57c-33.81,0 -62.74,-10.36 -86.8,-31.07 -24.06,-20.71 -35.94,-50.25 -35.94,-88.32 0,-34.12 12.18,-62.44 36.85,-84.67 24.67,-22.24 53.3,-33.51 85.89,-33.51 31.67,0 59.39,10.06 83.75,30.16 24.37,20.4 36.55,49.64 36.55,88.02 0,37.46 -11.88,66.7 -35.63,87.71 -23.76,21.02 -51.78,31.68 -84.67,31.68zm592.98 247.91l0 29.54c42.95,-56.65 89.85,-98.07 140.71,-124.56 50.87,-26.5 109.34,-39.6 175.43,-39.6 64.27,0 121.52,14.01 172.39,42.03 50.56,27.72 88.32,67.31 113.3,118.48 16.14,29.85 26.49,61.83 31.37,96.55 4.56,34.41 7,78.27 7,131.87l0 453.5c0,48.73 -11.27,85.58 -33.5,110.56 -22.23,24.97 -51.47,37.46 -87.11,37.46 -36.24,0 -65.78,-12.79 -88.63,-38.38 -22.53,-25.58 -33.8,-62.13 -33.8,-109.64l0 -406.29c0,-80.1 -11.27,-141.62 -33.5,-184.26 -22.24,-42.34 -66.7,-63.66 -133.4,-63.66 -43.25,0 -82.85,12.8 -118.78,38.68 -35.64,25.89 -61.83,61.53 -78.28,106.91 -11.88,36.24 -17.97,103.85 -17.97,203.45l0 305.17c0,49.34 -11.57,86.19 -34.41,110.86 -22.85,24.67 -52.39,37.16 -88.33,37.16 -35.02,0 -63.96,-12.79 -86.49,-38.38 -22.54,-25.58 -33.81,-62.13 -33.81,-109.64l0 -704.15c0,-46.3 10.05,-81.02 30.15,-103.86 20.41,-22.84 47.82,-34.42 82.84,-34.42 21.32,0 40.82,5.18 57.87,15.23 17.36,10.05 31.07,25.28 41.42,45.38 10.36,20.1 15.53,45.08 15.53,74.01zm896.64 -112.69l26.8 0 0 -146.49c0,-39.29 0.92,-70.05 3.05,-92.29 2.13,-22.53 7.92,-41.72 17.36,-57.56 9.44,-16.75 23.15,-30.46 41.11,-40.81 17.67,-10.36 37.47,-15.53 59.7,-15.53 30.76,0 58.48,11.57 83.45,34.72 16.75,15.53 27.11,34.41 31.67,56.95 4.57,22.23 6.71,53.91 6.71,95.02l0 165.99 89.23 0c34.42,0 60.92,8.23 78.89,24.37 18.27,16.44 27.41,37.46 27.41,62.74 0,32.89 -13.1,55.73 -38.99,68.83 -25.89,13.1 -62.74,19.49 -111.16,19.49l-45.38 0 0 447.71c0,38.07 1.21,67.62 3.95,88.02 2.75,20.41 9.75,37.16 21.32,49.95 11.88,12.79 30.77,19.19 56.96,19.19 14.01,0 33.5,-2.44 57.87,-7.62 24.36,-4.87 43.55,-7.61 56.95,-7.61 19.8,0 37.46,7.92 53.3,23.76 15.84,15.83 23.45,35.32 23.45,58.47 0,39.29 -21.32,69.14 -63.96,89.85 -42.94,21.01 -104.47,31.37 -184.87,31.37 -76.14,0 -133.7,-12.79 -172.69,-38.38 -39.29,-25.58 -64.87,-60.91 -77.05,-106.29 -12.19,-45.08 -18.28,-105.38 -18.28,-180.91l0 -467.51 -31.98 0c-35.33,0 -62.13,-8.22 -80.4,-24.97 -18.58,-16.45 -27.72,-37.77 -27.72,-63.35 0,-25.28 9.75,-46.3 28.94,-62.74 19.49,-16.14 47.51,-24.37 84.36,-24.37zm1545.37 473.6c0,72.79 -11.27,139.49 -33.81,200.71 -22.84,61.22 -55.43,113.91 -98.37,157.76 -42.64,44.17 -94.11,77.67 -153.5,101.12 -59.39,23.45 -126.4,35.33 -200.71,35.33 -74.01,0 -140.41,-11.88 -199.19,-35.64 -58.78,-23.75 -109.95,-57.86 -153.19,-102.33 -42.95,-44.16 -75.84,-96.55 -98.07,-156.85 -22.24,-60.61 -33.51,-127.31 -33.51,-200.4 0,-73.71 11.27,-141.32 33.81,-202.54 22.84,-61.22 55.13,-113.6 97.46,-157.16 42.34,-43.24 93.5,-76.75 153.5,-100.2 60,-23.45 126.4,-35.33 199.19,-35.33 73.7,0 140.71,11.88 200.71,35.64 59.99,23.75 111.47,57.86 154.41,102.03 42.94,43.85 75.53,96.24 97.77,157.15 22.23,60.61 33.5,127.61 33.5,200.71zm-244.87 0c0,-99.29 -21.93,-176.34 -65.48,-231.77 -43.86,-55.13 -102.34,-82.85 -176.04,-82.85 -47.82,0 -89.54,12.19 -125.79,36.86 -36.24,24.67 -64.26,61.21 -83.75,109.34 -19.8,48.12 -29.55,104.46 -29.55,168.42 0,63.65 9.75,119.39 28.94,166.9 19.49,47.51 46.9,84.06 82.84,109.34 35.94,25.28 78.58,37.77 127.31,37.77 73.7,0 132.18,-27.72 176.04,-83.45 43.55,-55.43 65.48,-132.49 65.48,-230.56zm657.24 -360.91l0 29.54c42.95,-56.65 89.85,-98.07 140.71,-124.56 50.87,-26.5 109.34,-39.6 175.43,-39.6 64.27,0 121.52,14.01 172.39,42.03 50.56,27.72 88.32,67.31 113.3,118.48 16.14,29.85 26.49,61.83 31.37,96.55 4.56,34.41 7,78.27 7,131.87l0 453.5c0,48.73 -11.27,85.58 -33.5,110.56 -22.23,24.97 -51.47,37.46 -87.11,37.46 -36.24,0 -65.78,-12.79 -88.63,-38.38 -22.53,-25.58 -33.8,-62.13 -33.8,-109.64l0 -406.29c0,-80.1 -11.27,-141.62 -33.5,-184.26 -22.24,-42.34 -66.7,-63.66 -133.4,-63.66 -43.25,0 -82.85,12.8 -118.78,38.68 -35.64,25.89 -61.83,61.53 -78.28,106.91 -11.88,36.24 -17.97,103.85 -17.97,203.45l0 305.17c0,49.34 -11.57,86.19 -34.41,110.86 -22.85,24.67 -52.39,37.16 -88.33,37.16 -35.02,0 -63.96,-12.79 -86.49,-38.38 -22.54,-25.58 -33.81,-62.13 -33.81,-109.64l0 -704.15c0,-46.3 10.05,-81.02 30.15,-103.86 20.41,-22.84 47.82,-34.42 82.84,-34.42 21.32,0 40.82,5.18 57.87,15.23 17.36,10.05 31.07,25.28 41.42,45.38 10.36,20.1 15.53,45.08 15.53,74.01zm1126.28 3.66l0 704.15c0,48.73 -11.57,85.58 -34.72,110.56 -23.14,24.97 -52.38,37.46 -88.02,37.46 -35.63,0 -64.56,-12.79 -86.8,-38.38 -22.23,-25.58 -33.5,-62.13 -33.5,-109.64l0 -696.84c0,-48.43 11.27,-84.67 33.5,-109.04 22.24,-24.36 51.17,-36.55 86.8,-36.55 35.64,0 64.88,12.19 88.02,36.55 23.15,24.37 34.72,58.48 34.72,101.73zm-120.3 -251.57c-33.81,0 -62.74,-10.36 -86.8,-31.07 -24.06,-20.71 -35.94,-50.25 -35.94,-88.32 0,-34.12 12.18,-62.44 36.85,-84.67 24.67,-22.24 53.3,-33.51 85.89,-33.51 31.67,0 59.39,10.06 83.75,30.16 24.37,20.4 36.55,49.64 36.55,88.02 0,37.46 -11.88,66.7 -35.63,87.71 -23.76,21.02 -51.78,31.68 -84.67,31.68zm1034 392.88l-446.19 498.88 477.25 0c38.68,0 67.92,9.14 87.41,27.11 19.8,18.27 29.54,41.72 29.54,70.05 0,27.41 -9.74,49.64 -28.93,67 -19.49,17.36 -48.73,25.89 -88.02,25.89l-660.3 0c-46.29,0 -81.01,-10.05 -103.85,-30.46 -22.85,-20.1 -34.42,-47.81 -34.42,-82.84 0,-20.71 7.92,-41.72 24.06,-63.04 16.14,-21.02 49.34,-59.7 99.9,-116.35 53.6,-59.39 102.33,-113.3 145.89,-161.72 43.85,-48.12 84.36,-93.2 121.82,-135.23 37.46,-41.72 68.53,-77.36 93.2,-106.6 24.67,-29.23 44.47,-54.21 59.39,-74.92l-362.13 0c-49.95,0 -87.71,-4.57 -113.3,-13.4 -25.58,-8.83 -38.37,-32.28 -38.37,-70.35 0,-27.72 9.44,-50.26 28.93,-66.7 19.19,-16.75 46.9,-24.98 82.54,-24.98l559.48 0c51.78,0 91.37,7.62 119.09,22.84 27.71,14.93 41.42,42.34 41.42,81.32 0,13.1 -2.74,26.8 -7.92,40.51 -5.48,14.01 -11.27,25.58 -17.97,34.42 -6.39,8.83 -15.53,19.79 -26.8,32.58 -11.27,12.8 -25.28,28.02 -41.72,45.99zm906.08 574.11c-59.09,45.68 -116.04,79.8 -170.87,102.64 -55.12,22.84 -116.95,34.11 -185.17,34.11 -62.44,0 -117.56,-12.49 -164.77,-37.16 -47.21,-24.67 -83.76,-57.87 -109.34,-100.2 -25.58,-42.33 -38.37,-88.02 -38.37,-137.36 0,-66.7 21.01,-123.35 63.35,-170.25 42.33,-47.21 100.5,-78.58 174.51,-94.72 15.23,-3.66 53.6,-11.57 114.82,-24.06 61.22,-12.49 113.91,-23.76 157.46,-34.42 43.55,-10.35 91.07,-22.84 142.23,-37.76 -3.04,-64.27 -15.83,-111.47 -38.68,-141.32 -23.14,-30.15 -70.35,-45.08 -142.53,-45.08 -61.83,0 -108.43,8.53 -139.49,25.89 -31.37,17.06 -58.18,42.94 -80.41,77.67 -22.23,34.41 -38.07,56.95 -47.21,68.22 -9.44,10.96 -29.23,16.44 -59.39,16.44 -27.41,0 -51.16,-8.83 -70.96,-26.49 -19.8,-17.36 -29.85,-39.9 -29.85,-67.31 0,-42.95 15.23,-84.67 45.38,-125.18 30.46,-40.51 77.67,-73.7 141.93,-99.9 64.26,-26.19 144.36,-39.28 240.3,-39.28 106.9,0 191.27,12.79 252.49,38.07 61.21,25.28 104.46,65.17 129.74,120 25.28,54.82 38.07,127.3 38.07,217.76 0,57.26 -0.3,105.68 -0.61,145.58 -0.3,39.9 -0.61,84.37 -1.22,133.1 0,45.68 7.62,93.5 22.85,143.14 15.23,49.34 22.53,81.32 22.53,95.64 0,24.97 -11.57,47.81 -35.02,68.22 -23.76,20.4 -50.25,30.76 -80.1,30.76 -24.98,0 -49.64,-11.57 -74.01,-35.03 -24.37,-23.45 -50.25,-57.25 -77.66,-101.72zm-16.15 -352.99c-35.63,13.09 -87.41,27.1 -155.63,41.42 -67.92,14.62 -115.12,25.58 -141.32,32.28 -26.19,7.01 -51.16,20.41 -74.92,40.21 -23.76,20.1 -35.63,47.81 -35.63,83.75 0,36.85 14.01,68.22 42.03,94.11 27.71,25.89 64.26,38.99 109.64,38.99 48.12,0 92.59,-10.66 133.09,-31.68 40.82,-21.32 70.66,-48.42 89.85,-81.93 21.93,-36.85 32.89,-97.76 32.89,-182.43l0 -34.72zm1153.39 350.55l0 -24.06c-32.59,37.46 -64.88,67.92 -96.85,91.37 -31.68,23.45 -66.4,41.42 -103.56,53.6 -37.15,12.19 -77.66,18.28 -121.82,18.28 -58.17,0 -112.08,-12.49 -161.73,-37.16 -49.64,-24.67 -92.89,-59.69 -129.13,-105.68 -36.25,-45.69 -63.66,-99.6 -82.54,-161.42 -18.58,-61.83 -28.02,-128.83 -28.02,-200.71 0,-152.28 37.16,-271.06 111.47,-356.04 74.32,-84.97 172.39,-127.61 293.6,-127.61 70.36,0 129.44,12.18 177.56,36.24 48.12,24.06 95.33,61.22 141.02,111.47l0 -359.69c0,-49.95 10.05,-87.71 29.84,-113.29 20.11,-25.59 48.43,-38.38 85.28,-38.38 36.86,0 65.18,11.88 85.28,35.33 19.8,23.45 29.85,58.17 29.85,103.86l0 1073.89c0,46.3 -10.66,81.32 -31.98,104.47 -21.63,23.15 -49.34,34.72 -83.15,34.72 -33.19,0 -60.91,-12.18 -82.53,-36.24 -21.63,-24.07 -32.59,-58.48 -32.59,-102.95zm-478.78 -357.56c0,66.09 10.36,122.13 30.76,168.73 20.41,46.3 48.43,81.02 84.37,104.47 35.63,23.45 74.62,35.33 116.65,35.33 42.94,0 81.92,-11.27 117.25,-33.5 35.33,-22.24 63.66,-56.35 84.67,-102.34 21.02,-46.29 31.68,-103.55 31.68,-172.69 0,-64.56 -10.66,-120.3 -31.68,-166.9 -21.01,-46.9 -49.64,-82.54 -85.58,-107.21 -35.94,-24.67 -75.23,-36.85 -118.17,-36.85 -44.47,0 -84.37,12.49 -119.39,37.77 -35.03,25.28 -62.13,61.52 -81.63,108.73 -19.18,47.51 -28.93,102.33 -28.93,164.46zm1569.43 360c-59.09,45.68 -116.04,79.8 -170.87,102.64 -55.12,22.84 -116.95,34.11 -185.17,34.11 -62.44,0 -117.56,-12.49 -164.77,-37.16 -47.21,-24.67 -83.76,-57.87 -109.34,-100.2 -25.58,-42.33 -38.37,-88.02 -38.37,-137.36 0,-66.7 21.01,-123.35 63.35,-170.25 42.33,-47.21 100.5,-78.58 174.51,-94.72 15.23,-3.66 53.6,-11.57 114.82,-24.06 61.22,-12.49 113.91,-23.76 157.46,-34.42 43.55,-10.35 91.07,-22.84 142.23,-37.76 -3.04,-64.27 -15.83,-111.47 -38.68,-141.32 -23.14,-30.15 -70.35,-45.08 -142.53,-45.08 -61.83,0 -108.43,8.53 -139.49,25.89 -31.37,17.06 -58.18,42.94 -80.41,77.67 -22.23,34.41 -38.07,56.95 -47.21,68.22 -9.44,10.96 -29.23,16.44 -59.39,16.44 -27.41,0 -51.16,-8.83 -70.96,-26.49 -19.8,-17.36 -29.85,-39.9 -29.85,-67.31 0,-42.95 15.23,-84.67 45.38,-125.18 30.46,-40.51 77.67,-73.7 141.93,-99.9 64.26,-26.19 144.36,-39.28 240.3,-39.28 106.9,0 191.27,12.79 252.49,38.07 61.21,25.28 104.46,65.17 129.74,120 25.28,54.82 38.07,127.3 38.07,217.76 0,57.26 -0.3,105.68 -0.61,145.58 -0.3,39.9 -0.61,84.37 -1.22,133.1 0,45.68 7.62,93.5 22.85,143.14 15.23,49.34 22.53,81.32 22.53,95.64 0,24.97 -11.57,47.81 -35.02,68.22 -23.76,20.4 -50.25,30.76 -80.1,30.76 -24.98,0 -49.64,-11.57 -74.01,-35.03 -24.37,-23.45 -50.25,-57.25 -77.66,-101.72zm-16.15 -352.99c-35.63,13.09 -87.41,27.1 -155.63,41.42 -67.92,14.62 -115.12,25.58 -141.32,32.28 -26.19,7.01 -51.16,20.41 -74.92,40.21 -23.76,20.1 -35.63,47.81 -35.63,83.75 0,36.85 14.01,68.22 42.03,94.11 27.71,25.89 64.26,38.99 109.64,38.99 48.12,0 92.59,-10.66 133.09,-31.68 40.82,-21.32 70.66,-48.42 89.85,-81.93 21.93,-36.85 32.89,-97.76 32.89,-182.43l0 -34.72zm1622.72 54.82l-476.64 0c0.61,55.43 11.88,104.16 33.5,146.5 21.63,42.33 50.56,74 86.5,95.32 35.94,21.63 75.84,32.29 119.08,32.29 29.24,0 55.74,-3.35 79.8,-10.36 24.36,-6.7 47.51,-17.36 70.05,-31.98 22.84,-14.62 43.55,-30.15 62.44,-46.9 19.18,-16.75 43.85,-39.29 74.31,-67.92 12.49,-10.66 30.15,-16.14 53.3,-16.14 24.97,0 45.38,7.01 60.91,20.71 15.23,13.4 23.15,32.89 23.15,57.87 0,21.93 -8.83,47.51 -25.89,77.05 -17.36,29.24 -43.25,57.57 -78.27,84.37 -34.72,27.1 -78.28,49.64 -130.97,67.31 -52.69,17.97 -113.29,26.8 -181.52,26.8 -156.54,0 -278.06,-44.77 -364.87,-134.01 -86.8,-89.24 -130.04,-210.15 -130.04,-363.04 0,-71.88 10.65,-138.88 31.97,-200.41 21.32,-61.52 52.69,-114.21 93.51,-158.37 41.11,-43.86 91.67,-77.66 151.67,-101.11 60,-23.46 126.7,-35.33 199.79,-35.33 95.33,0 176.96,20.1 244.87,60.3 68.23,40.2 119.09,91.98 153.2,155.94 33.81,63.65 50.86,128.52 50.86,194.61 0,61.22 -17.66,101.12 -52.69,119.39 -35.02,17.97 -84.36,27.11 -148.02,27.11zm-476.64 -138.88l441.62 0c-5.79,-83.15 -28.33,-145.28 -67.31,-186.7 -38.98,-41.12 -90.15,-61.83 -153.8,-61.83 -60.92,0 -110.56,21.02 -149.55,62.74 -38.98,42.03 -62.74,103.86 -70.96,185.79zm1692.46 96.55l0 323.75c0,51.16 -11.57,89.54 -34.72,115.12 -23.14,25.59 -53.9,38.38 -91.67,38.38 -36.85,0 -66.7,-12.79 -89.54,-38.38 -22.85,-25.58 -34.42,-63.96 -34.42,-115.12l0 -388.02c0,-61.52 -2.13,-109.03 -6.39,-142.84 -3.96,-33.81 -15.23,-61.83 -33.81,-83.45 -18.58,-21.62 -47.51,-32.59 -87.72,-32.59 -79.79,0 -132.18,27.41 -157.46,82.23 -25.28,54.52 -38.07,133.1 -38.07,235.43l0 329.24c0,50.56 -11.57,88.93 -34.41,114.82 -22.85,25.89 -53,38.68 -90.15,38.68 -36.86,0 -67.01,-12.79 -90.46,-38.68 -23.45,-25.89 -35.33,-64.26 -35.33,-114.82l0 -696.85c0,-45.68 10.66,-80.71 31.68,-104.46 21.01,-23.76 48.73,-35.64 83.14,-35.64 33.5,0 61.22,11.27 83.45,33.51 22.24,22.23 33.5,52.99 33.5,92.28l0 23.15c42.03,-50.56 87.41,-87.72 135.54,-111.48 48.12,-23.75 101.72,-35.63 160.5,-35.63 61.52,0 113.91,12.18 158.07,36.55 44.16,24.36 80.41,61.22 108.73,110.56 41.12,-49.95 85.28,-86.81 132.18,-110.87 46.91,-24.06 98.99,-36.24 156.24,-36.24 66.7,0 123.96,13.1 172.08,39.29 48.12,26.19 84.37,63.65 108.12,112.38 20.71,43.86 31.07,113.3 31.07,207.72l0 475.73c0,51.16 -11.57,89.54 -34.72,115.12 -23.15,25.59 -53.91,38.38 -91.68,38.38 -36.85,0 -67,-12.79 -90.45,-38.68 -23.45,-25.89 -35.33,-64.26 -35.33,-114.82l0 -409.64c0,-52.39 -2.13,-94.11 -6.7,-125.79 -4.57,-31.37 -16.45,-57.86 -36.24,-79.49 -19.5,-21.32 -49.34,-31.98 -89.24,-31.98 -32.29,0 -62.74,9.44 -91.68,28.63 -28.62,18.88 -51.16,44.47 -67.3,76.75 -17.97,40.81 -26.81,113.6 -26.81,217.77zm1474.71 -701.11l296.04 876.84 296.95 -882.93c15.54,-46.6 27.11,-78.89 34.72,-96.86 7.92,-18.27 20.71,-34.41 38.38,-49.03 17.97,-14.62 42.33,-21.93 73.09,-21.93 22.54,0 43.56,5.79 63.05,17.06 19.19,11.26 34.41,26.19 45.38,45.07 10.96,18.58 16.45,37.46 16.45,56.65 0,12.79 -1.83,27.11 -5.49,42.33 -3.35,14.93 -7.92,29.85 -13.09,44.47 -5.49,14.62 -10.97,29.54 -16.15,45.08l-316.44 854.61c-11.57,32.58 -22.84,63.65 -34.11,93.19 -11.27,29.24 -24.36,55.13 -39.29,77.67 -14.62,22.23 -34.41,40.5 -59.08,54.82 -24.67,14.31 -54.83,21.32 -90.46,21.32 -35.94,0 -66.09,-7.01 -90.76,-21.02 -24.67,-14.01 -44.47,-32.28 -59.69,-55.12 -14.93,-23.15 -28.33,-49.04 -39.6,-78.28 -11.27,-28.93 -22.54,-60 -33.81,-92.58l-311.26 -847.61c-5.48,-15.23 -10.96,-30.45 -16.45,-45.38 -5.78,-14.92 -10.35,-31.06 -14.31,-48.12 -3.96,-17.36 -5.79,-31.98 -5.79,-43.86 0,-30.15 12.18,-57.86 36.55,-82.84 24.36,-24.97 55.13,-37.46 91.98,-37.46 45.07,0 77.05,13.71 95.63,41.42 18.88,27.72 38.07,71.88 57.56,132.49zm1867.6 683.44c0,72.79 -11.27,139.49 -33.81,200.71 -22.84,61.22 -55.43,113.91 -98.37,157.76 -42.64,44.17 -94.11,77.67 -153.5,101.12 -59.39,23.45 -126.4,35.33 -200.71,35.33 -74.01,0 -140.41,-11.88 -199.19,-35.64 -58.78,-23.75 -109.95,-57.86 -153.19,-102.33 -42.95,-44.16 -75.84,-96.55 -98.07,-156.85 -22.24,-60.61 -33.51,-127.31 -33.51,-200.4 0,-73.71 11.27,-141.32 33.81,-202.54 22.84,-61.22 55.13,-113.6 97.46,-157.16 42.34,-43.24 93.5,-76.75 153.5,-100.2 60,-23.45 126.4,-35.33 199.19,-35.33 73.7,0 140.71,11.88 200.71,35.64 59.99,23.75 111.47,57.86 154.41,102.03 42.94,43.85 75.53,96.24 97.77,157.15 22.23,60.61 33.5,127.61 33.5,200.71zm-244.87 0c0,-99.29 -21.93,-176.34 -65.48,-231.77 -43.86,-55.13 -102.34,-82.85 -176.04,-82.85 -47.82,0 -89.54,12.19 -125.79,36.86 -36.24,24.67 -64.26,61.21 -83.75,109.34 -19.8,48.12 -29.55,104.46 -29.55,168.42 0,63.65 9.75,119.39 28.94,166.9 19.49,47.51 46.9,84.06 82.84,109.34 35.94,25.28 78.58,37.77 127.31,37.77 73.7,0 132.18,-27.72 176.04,-83.45 43.55,-55.43 65.48,-132.49 65.48,-230.56zm1310.54 193.7c0,30.16 -9.14,62.74 -27.41,97.16 -17.97,34.42 -45.69,67.31 -82.85,98.37 -37.15,31.07 -84.06,56.35 -140.7,75.23 -56.35,19.19 -120,28.63 -190.97,28.63 -150.45,0 -268.01,-43.86 -352.38,-131.57 -84.67,-87.72 -127,-205.28 -127,-352.99 0,-99.9 19.49,-188.22 58.17,-264.97 38.68,-76.75 94.72,-136.14 167.81,-177.87 73.41,-42.03 160.82,-63.04 262.54,-63.04 63.04,0 120.91,9.13 173.6,27.71 52.39,18.58 97.16,42.34 133.71,71.57 36.54,29.24 64.56,60.31 83.75,93.2 19.49,33.2 29.24,63.96 29.24,92.59 0,29.24 -10.96,53.91 -32.59,74.31 -21.93,20.1 -48.12,30.15 -79.19,30.15 -20.1,0 -36.85,-5.17 -50.25,-15.53 -13.4,-10.35 -28.32,-27.1 -45.07,-50.25 -29.85,-45.08 -60.92,-79.19 -93.2,-101.73 -32.59,-22.53 -73.71,-33.8 -123.65,-33.8 -71.88,0 -130.05,28.02 -173.91,84.36 -44.16,56.04 -66.09,132.79 -66.09,230.25 0,45.69 5.78,87.72 17.05,126.09 11.27,38.38 27.41,71.27 49.04,98.07 21.32,27.11 47.21,47.51 77.66,61.52 30.15,14.01 63.66,21.02 99.9,21.02 48.73,0 90.46,-11.27 125.18,-33.81 35.02,-22.53 65.78,-57.26 92.58,-103.55 14.62,-27.41 30.77,-48.73 48.13,-63.96 17.05,-15.53 38.37,-23.45 63.34,-23.45 29.85,0 54.52,11.57 74.01,34.11 19.5,22.54 29.55,46.6 29.55,72.18z"/>
    <path class="fil5" d="M31567.65 21529.38l-476.64 0c0.61,55.43 11.88,104.16 33.5,146.5 21.63,42.33 50.56,74 86.5,95.32 35.94,21.63 75.84,32.29 119.08,32.29 29.24,0 55.74,-3.35 79.8,-10.36 24.36,-6.7 47.51,-17.36 70.05,-31.98 22.84,-14.62 43.55,-30.15 62.44,-46.9 19.18,-16.75 43.85,-39.29 74.31,-67.92 12.49,-10.66 30.15,-16.14 53.3,-16.14 24.97,0 45.38,7.01 60.91,20.71 15.23,13.4 23.15,32.89 23.15,57.87 0,21.93 -8.83,47.51 -25.89,77.05 -17.36,29.24 -43.25,57.57 -78.27,84.37 -34.72,27.1 -78.28,49.64 -130.97,67.31 -52.69,17.97 -113.29,26.8 -181.52,26.8 -156.54,0 -278.06,-44.77 -364.87,-134.01 -86.8,-89.24 -130.04,-210.15 -130.04,-363.04 0,-71.88 10.65,-138.88 31.97,-200.41 21.32,-61.52 52.69,-114.21 93.51,-158.37 41.11,-43.86 91.67,-77.66 151.67,-101.11 60,-23.46 126.7,-35.33 199.79,-35.33 95.33,0 176.96,20.1 244.87,60.3 68.23,40.2 119.09,91.98 153.2,155.94 33.81,63.65 50.86,128.52 50.86,194.61 0,61.22 -17.66,101.12 -52.69,119.39 -35.02,17.97 -84.36,27.11 -148.02,27.11zm-476.64 -138.88l441.62 0c-5.79,-83.15 -28.33,-145.28 -67.31,-186.7 -38.98,-41.12 -90.15,-61.83 -153.8,-61.83 -60.92,0 -110.56,21.02 -149.55,62.74 -38.98,42.03 -62.74,103.86 -70.96,185.79zm268.32 -583.24l-89.24 -104.16 -89.23 104.16c-24.98,29.84 -41.73,47.81 -50.87,54.51 -8.83,6.4 -25.58,9.75 -49.94,9.75l-71.27 0c-24.37,0 -36.55,-4.26 -36.55,-12.49 0,-6.39 9.14,-21.32 27.72,-44.46l98.98 -118.78c8.22,-10.06 17.66,-21.63 28.32,-35.03 10.97,-13.4 20.1,-22.84 28.33,-28.63 7.92,-5.79 19.79,-10.05 35.02,-13.4 15.54,-3.35 33.51,-4.87 53.61,-4.87l49.95 0c39.28,0 66.09,4.87 80.7,14.31 14.62,9.44 36.25,31.98 64.57,67.62l102.64 120.3c17.36,22.84 25.89,36.24 25.89,40.2 0,10.05 -13.4,15.23 -40.2,15.23l-67.62 0c-17.97,0 -31.98,-2.44 -42.33,-7.61 -10.66,-4.88 -20.41,-12.8 -29.85,-23.46 -9.75,-10.96 -19.19,-21.92 -28.63,-33.19z"/>
   </g>
   <path class="fil4" d="M33832.55 21674.18l0 918 -228.63 0 0 -492.85c0,-71.18 -1.74,-114.12 -5.03,-128.44 -3.48,-14.31 -12.77,-25.34 -28.05,-32.69 -15.28,-7.35 -49.32,-11.02 -102.13,-11.02l-22.63 0 0 -106.58c110.64,-23.6 194.59,-72.53 251.84,-146.42l134.63 0zm628.83 310.83l0 306c0,69.64 -3.87,120.12 -11.41,151.84 -7.55,31.92 -23.21,61.51 -47,89.17 -23.8,27.47 -52.42,47.39 -86.08,59.39 -33.46,12.18 -70.99,18.18 -112.57,18.18 -54.74,0 -100.2,-6.38 -136.56,-18.96 -36.17,-12.76 -64.99,-32.49 -86.66,-59.19 -21.47,-26.88 -36.75,-55.12 -45.84,-84.72 -9.09,-29.78 -13.54,-76.98 -13.54,-141.59l0 -320.12c0,-84.33 7.35,-147.39 21.86,-189.36 14.5,-41.97 43.32,-75.63 86.65,-100.97 43.14,-25.34 95.55,-37.91 157.06,-37.91 50.3,0 95.17,8.7 134.82,26.3 39.66,17.61 69.25,39.08 88.79,64.42 19.73,25.33 33.07,53.77 40.03,85.49 6.97,31.72 10.45,82.4 10.45,152.03zm-228.63 -76.79c0,-48.74 -2.32,-79.11 -7.16,-91.49 -4.64,-12.18 -15.66,-18.37 -33.27,-18.37 -17.02,0 -28.24,6.57 -33.65,19.53 -5.61,12.96 -8.32,43.14 -8.32,90.33l0 447.21c0,53.19 2.51,85.3 7.74,96.13 5.03,11.02 16.05,16.44 33.27,16.44 17.02,0 28.04,-6.38 33.46,-19.34 5.22,-12.77 7.93,-41.59 7.93,-86.46l0 -453.98zm778.93 -234.04l0 600.01 64.99 0 0 156.67 -64.99 0 0 161.32 -228.64 0 0 -161.32 -272.73 0 0 -156.67 198.27 -600.01 303.1 0zm-228.64 600.01l0 -390.53 -101.74 390.53 101.74 0zm474.09 138.1l0 82.21c0,43.13 -5.03,78.53 -15.28,106 -10.05,27.66 -27.85,51.06 -52.8,70.4 -25.15,19.15 -53.39,32.11 -85.11,38.5l0 -66.16c22.63,-12.76 35.4,-29.78 38.3,-51.06l-38.3 0 0 -179.89 153.19 0zm61.51 -63.83l228.63 0c0,42.94 0.58,70.02 1.74,81.05 1.16,11.22 5.8,20.69 14.12,28.24 8.12,7.54 19.34,11.41 33.46,11.41 11.8,0 21.47,-3.67 29.21,-10.83 7.54,-7.16 11.99,-16.25 12.96,-27.66 0.97,-11.41 1.35,-34.24 1.35,-68.47l0 -146.04c-11.41,24.37 -28.43,42.55 -51.06,54.74 -22.82,12.18 -51.06,18.37 -84.72,18.37 -41.97,0 -79.11,-11.41 -111.22,-34.04 -32.3,-22.63 -52.61,-49.9 -61.32,-81.63 -8.7,-31.72 -13.15,-74.66 -13.15,-128.82l0 -73.11c0,-64.41 2.51,-112.19 7.74,-143.53 5.03,-31.52 18.18,-60.54 39.26,-87.04 21.28,-26.69 50.49,-47.39 88.01,-62.28 37.33,-14.7 80.85,-22.05 130.37,-22.05 61.32,0 111.61,8.51 150.87,25.53 39.27,17.02 69.83,41.39 91.3,73.5 21.66,31.92 34.04,65.38 37.53,100.58 3.28,35.21 5.03,103.29 5.03,204.26l0 127.67c0,109.09 -1.55,182.2 -4.45,219.15 -3.1,36.75 -16.25,71.76 -39.46,104.64 -23.21,32.88 -54.74,57.45 -94.4,73.89 -39.84,16.44 -85.68,24.76 -137.91,24.76 -64.6,0 -117.41,-10.45 -158.41,-31.14 -41.01,-20.89 -70.61,-50.29 -88.59,-88.01 -17.99,-37.91 -26.89,-85.69 -26.89,-143.14zm228.63 -285.88c0,38.68 5.03,62.47 15.28,71.57 10.06,9.09 20.5,13.54 31.14,13.54 16.06,0 27.86,-5.81 35.21,-17.22 7.54,-11.61 11.21,-34.24 11.21,-67.89l0 -166.16c0,-40.42 -3.48,-66.92 -10.63,-79.3 -6.97,-12.57 -18.77,-18.76 -35.21,-18.76 -9.86,0 -20.31,4.83 -30.95,14.5 -10.63,9.68 -16.05,35.59 -16.05,77.95l0 171.77z"/>
  </g>
 </g>
</svg>
